<svg class="googleRating_googleLogoSvg__1pkbS" xmlns="http://www.w3.org/2000/svg" xmlns:xlink="http://www.w3.org/1999/xlink" width="72px" height="72px" viewBox="0 0 72 72" version="1.1"><title>Google Rating</title><g id="Page-1" stroke="none" stroke-width="1" fill="none" fill-rule="evenodd"><g id="D1" transform="translate(-799.000000, -4203.000000)"><g id="Group-28-Copy-2" transform="translate(0.000000, 3992.000000)"><g id="Group-23-Copy-2"><g id="Group-21" transform="translate(799.000000, 211.000000)"><g id="Group-62"><g id="Group-61"><g id="Group-40-Copy-4"><rect id="Rectangle" x="0" y="0" width="72" height="72"></rect><g id="icons8-google-(1)" transform="translate(6.000000, 6.000000)" fill-rule="nonzero"><path d="M59.4165,24.1245 L57,24.1245 L57,24 L30,24 L30,36 L46.9545,36 C44.481,42.9855 37.8345,48 30,48 C20.0595,48 12,39.9405 12,30 C12,20.0595 20.0595,12 30,12 C34.5885,12 38.763,13.731 41.9415,16.5585 L50.427,8.073 C45.069,3.0795 37.902,0 30,0 C13.4325,0 0,13.4325 0,30 C0,46.5675 13.4325,60 30,60 C46.5675,60 60,46.5675 60,30 C60,27.9885 59.793,26.025 59.4165,24.1245 Z" id="Path" fill="#FFC107"></path><path d="M3.459,16.0365 L13.3155,23.265 C15.9825,16.662 22.4415,12 30,12 C34.5885,12 38.763,13.731 41.9415,16.5585 L50.427,8.073 C45.069,3.0795 37.902,0 30,0 C18.477,0 8.484,6.5055 3.459,16.0365 Z" id="Path" fill="#FF3D00"></path><path d="M30,60 C37.749,60 44.79,57.0345 50.1135,52.212 L40.8285,44.355 C37.8165,46.6365 34.0725,48 30,48 C22.197,48 15.5715,43.0245 13.0755,36.081 L3.2925,43.6185 C8.2575,53.334 18.3405,60 30,60 Z" id="Path" fill="#4CAF50"></path><path d="M59.4165,24.1245 L57,24.1245 L57,24 L30,24 L30,36 L46.9545,36 C45.7665,39.3555 43.608,42.249 40.824,44.3565 C40.8255,44.355 40.827,44.355 40.8285,44.3535 L50.1135,52.2105 C49.4565,52.8075 60,45 60,30 C60,27.9885 59.793,26.025 59.4165,24.1245 Z" id="Path" fill="#1976D2"></path></g></g></g></g></g></g></g></g></g></svg>