<svg xmlns="http://www.w3.org/2000/svg" xmlns:xlink="http://www.w3.org/1999/xlink" width="72px" height="72px" viewBox="0 0 72 72" version="1.1"><g id="Page-1" stroke="none" stroke-width="1" fill="none" fill-rule="evenodd"><g id="D1" transform="translate(-1111.000000, -5156.000000)"><g id="Group-70" transform="translate(0.000000, 5031.000000)"><g id="Group-76"><g id="Group-17"><g id="Group-72-Copy-3" transform="translate(1007.000000, 125.000000)"><g id="Rectangle-4" transform="translate(104.000000, 0.000000)"><rect id="Rectangle" x="0" y="0" width="72" height="72"></rect><g id="Post-Installation-Service-icon-(1)" transform="translate(12.000000, 12.000000)" fill-rule="nonzero"><path d="M23.704,48.053 C17.614,48.053 12.643,46.24 8.082,42.362 C7.312,41.707 4.832,39.12 4.727,39.01 C4.393,38.662 4.405,38.109 4.754,37.775 C5.102,37.441 5.655,37.453 5.989,37.802 C6.688,38.532 8.631,40.536 9.214,41.032 C13.57,44.737 18.129,46.368 23.992,46.305 C29.961,46.246 35.503,43.96 39.596,39.867 C43.838,35.625 46.168,30.044 46.156,24.152 C46.15,21.109 45.462,17.998 44.166,15.156 C43.966,14.717 44.159,14.199 44.598,13.999 C45.037,13.799 45.555,13.993 45.755,14.431 C47.153,17.498 47.896,20.858 47.9030502,24.148 C47.916,30.508 45.405,36.529 40.832,41.102 C36.414,45.52 30.44,47.988 24.01,48.051 C23.907,48.053 23.805,48.053 23.704,48.053 Z" id="Path" fill="#646564"></path><path d="M3.041,34.382 C2.709,34.382 2.392,34.192 2.246,33.871 C0.848,30.804 0.105,27.444 0.0979497742,24.154 C0.085,17.794 2.596,11.773 7.169,7.2 C11.587,2.782 17.561,0.314 23.991,0.251 C30.222,0.192 35.281,1.998 39.917,5.94 C40.687,6.595 43.166,9.183 43.272,9.292 C43.606,9.64 43.594,10.193 43.245,10.527 C42.897,10.861 42.344,10.849 42.01,10.5 C41.311,9.77 39.368,7.766 38.785,7.27 C34.429,3.565 29.873,1.942 24.007,1.997 C18.038,2.056 12.496,4.342 8.403,8.435 C4.161,12.677 1.831,18.258 1.843,24.15 C1.849,27.193 2.537,30.304 3.833,33.146 C4.033,33.585 3.839,34.103 3.401,34.303 C3.286,34.356 3.162,34.382 3.041,34.382 Z" id="Path" fill="#646564"></path><path d="M42.642,10.77 L36.063,10.77 C35.581,10.77 35.19,10.379 35.19,9.897 C35.19,9.415 35.581,9.024 36.063,9.024 L41.769,9.024 L41.769,3.318 C41.769,2.836 42.16,2.445 42.642,2.445 C43.124,2.445 43.515,2.836 43.515,3.318 L43.515,9.897 C43.515,10.379 43.124,10.77 42.642,10.77 Z" id="Path" fill="#E61E27"></path><path d="M33.869,34.894 C33.646,34.894 33.422,34.809 33.252,34.638 L32.155,33.541 C31.814,33.2 31.814,32.647 32.155,32.306 C32.496,31.965 33.049,31.965 33.39,32.306 L34.487,33.403 C34.828,33.744 34.828,34.297 34.487,34.638 C34.316,34.809 34.093,34.894 33.869,34.894 Z" id="Path" fill="#646564"></path><path d="M33.36,39.417 C32.336,39.417 31.424,39.059 30.743,38.377 L18.379,26.014 C18.319,25.954 18.223,25.955 18.185,25.958 C15.524,26.167 12.921,25.209 11.043,23.33 C8.84,21.127 7.927,17.991 8.599,14.941 C8.752,14.245 9.276,13.687 9.965,13.486 C10.661,13.283 11.41,13.474 11.921,13.984 L15.768,17.831 C15.855,17.918 15.997,17.918 16.084,17.831 L18.41,15.505 C18.464,15.451 18.476,15.389 18.476,15.347 C18.476,15.305 18.465,15.243 18.411,15.189 L14.564,11.342 C14.053,10.831 13.863,10.082 14.066,9.386 C14.267,8.697 14.825,8.174 15.522,8.02 C18.572,7.348 21.708,8.261 23.911,10.464 C26.131,12.684 27.042,15.842 26.347,18.911 C26.339,18.948 26.318,19.074 26.395,19.151 L38.181,30.94 C39.859,32.618 39.542,35.466 37.444,37.564 C36.466,38.542 35.264,39.181 34.06,39.363 C33.822,39.4 33.588,39.417 33.36,39.417 Z M18.213,24.211 C18.745,24.211 19.248,24.414 19.614,24.78 L31.978,37.144 C32.409,37.575 33.056,37.75 33.799,37.638 C34.637,37.511 35.493,37.047 36.209,36.331 C37.58,34.96 37.904,33.135 36.946,32.176 L25.157,20.387 C24.678,19.908 24.485,19.213 24.641,18.526 C25.203,16.045 24.467,13.493 22.673,11.7 C20.894,9.921 18.36,9.183 15.895,9.726 C15.797,9.748 15.756,9.819 15.74,9.876 C15.725,9.926 15.713,10.024 15.797,10.107 L19.644,13.954 C20.016,14.326 20.221,14.821 20.221,15.347 C20.221,15.873 20.016,16.368 19.644,16.74 L17.318,19.066 C16.55,19.834 15.3,19.834 14.532,19.066 L10.685,15.219 L10.685,15.219 C10.601,15.135 10.504,15.147 10.454,15.162 C10.398,15.178 10.326,15.219 10.304,15.317 C9.761,17.782 10.498,20.316 12.277,22.095 C13.794,23.612 15.897,24.384 18.048,24.216 C18.103,24.213 18.158,24.211 18.213,24.211 Z" id="Shape" fill="#646564"></path><path d="M5.358,45.86 C4.876,45.86 4.485,45.469 4.485,44.987 L4.485,38.407 C4.485,37.925 4.876,37.534 5.358,37.534 L11.937,37.534 C12.419,37.534 12.81,37.925 12.81,38.407 C12.81,38.889 12.419,39.28 11.937,39.28 L6.231,39.28 L6.231,44.986 C6.231,45.469 5.84,45.86 5.358,45.86 Z" id="Path" fill="#E61E27"></path></g></g></g></g></g></g></g></g></svg>