<svg height="65" width="65" xmlns="http://www.w3.org/2000/svg" xmlns:xlink="http://www.w3.org/1999/xlink" version="1.1" id="Layer_1" x="0px" y="0px" viewBox="0 0 75 75" xml:space="preserve"><title>wardrobe interior designs for home</title><g><g><g><g><rect x="50.65535" y="36.91802" fill="#636462" width="20.13655" height="2.68547"></rect></g><g><rect x="50.65535" y="51.90676" fill="#636462" width="20.13655" height="2.68547"></rect></g><g><path fill="#636462" d="M69.84801,72.31408H48.25366V5.37139H26.33139V2.68592H48.6525c1.26089,0,2.28662,1.02585,2.28662,2.28674      v11.65551h18.90888c1.26089,0,2.28662,1.02574,2.28662,2.28663v51.11266C72.13463,71.28835,71.10889,72.31408,69.84801,72.31408      z M50.93913,69.62861h18.51003V19.31363H50.93913V69.62861z"></path></g><g><path fill="#636462" d="M26.72695,72.31408H4.70328c-1.26089,0-2.28663-1.02573-2.28663-2.28663V4.97266      c0-1.26089,1.02574-2.28674,2.28663-2.28674h21.62811v2.68547H5.10212v64.25722h21.62483V72.31408z"></path></g><g><rect x="26.72695" y="69.62861" fill="#636462" width="23.60714" height="2.68547"></rect></g></g><g><rect x="25.45841" y="3.90529" fill="#636462" width="2.68547" height="66.79813"></rect></g><g><path fill="#E61E27" d="M19.98006,36.69576c-0.74152,0-1.34274-0.60122-1.34274-1.34274v-7.61725     c0-0.74152,0.60122-1.34274,1.34274-1.34274s1.34274,0.60121,1.34274,1.34274v7.61725     C21.32279,36.09454,20.72158,36.69576,19.98006,36.69576z"></path></g><g><path fill="#E61E27" d="M33.59361,36.69576c-0.74152,0-1.34274-0.60122-1.34274-1.34274v-7.61725     c0-0.74152,0.60122-1.34274,1.34274-1.34274s1.34274,0.60121,1.34274,1.34274v7.61725     C34.93634,36.09454,34.33513,36.69576,33.59361,36.69576z"></path></g></g></g></svg>