<svg xmlns="http://www.w3.org/2000/svg" xmlns:xlink="http://www.w3.org/1999/xlink" width="72px" height="72px" viewBox="0 0 72 72" version="1.1"><g id="Page-1" stroke="none" stroke-width="1" fill="none" fill-rule="evenodd"><g id="D1" transform="translate(-1063.000000, -749.000000)"><g id="Group-18-Copy-3" transform="translate(0.000000, 648.000000)"><g id="temp" transform="translate(211.000000, 101.000000)"><g id="Group-11"><g id="Group-10"><g id="Group-14-Copy-2" transform="translate(832.000000, 0.000000)"><g id="Group-9"><g id="Rectangle-4" transform="translate(20.000000, 0.000000)"><rect id="Rectangle" x="0" y="0" width="72" height="72"></rect><g id="RTB-04-copy-01" transform="translate(11.000000, 12.000000)"><path d="M15.177,43.154 C14.546,43.154 13.937,43.012 13.364,42.732 L2.777,37.56 C2.058,37.21 1.527,36.567 1.316,35.793 L1.311,35.778 C1.289,35.716 1.273,35.652 1.265,35.587 L1.232,35.336 C1.228,35.306 1.226,35.274 1.225,35.244 L1.219,35.084 C1.219,35.065 1.219,35.046 1.219,35.026 L1.225,34.865 C1.226,34.835 1.228,34.806 1.232,34.775 L1.266,34.519 C1.274,34.454 1.29,34.391 1.311,34.33 L1.316,34.316 C1.364,34.139 1.423,33.977 1.498,33.825 C1.768,33.275 2.222,32.823 2.775,32.552 L2.853,32.514 L5.551,31.196 C6,30.977 6.542,31.162 6.762,31.612 C6.981,32.062 6.795,32.603 6.346,32.823 L3.567,34.18 C3.375,34.274 3.219,34.429 3.124,34.622 C3.1,34.672 3.079,34.731 3.061,34.801 C3.058,34.816 3.054,34.832 3.049,34.847 L3.033,34.968 L3.03,35.055 L3.033,35.14 L3.05,35.267 C3.053,35.278 3.057,35.29 3.06,35.302 C3.131,35.582 3.312,35.807 3.571,35.932 L14.16,41.105 C14.805,41.421 15.545,41.421 16.194,41.104 L26.683,35.981 C26.692,35.977 26.702,35.971 26.713,35.966 L26.783,35.932 C26.98,35.836 27.136,35.683 27.23,35.488 C27.233,35.483 27.235,35.479 27.237,35.475 C27.258,35.43 27.276,35.373 27.295,35.302 C27.298,35.29 27.301,35.278 27.305,35.268 L27.324,35.056 L27.32,34.971 L27.305,34.843 C27.301,34.832 27.298,34.82 27.295,34.809 C27.224,34.528 27.042,34.304 26.783,34.178 C26.769,34.172 26.757,34.165 26.744,34.158 L23.493,32.374 C23.054,32.134 22.894,31.583 23.134,31.145 C23.375,30.707 23.925,30.546 24.364,30.786 L27.599,32.56 C28.308,32.915 28.83,33.553 29.038,34.318 L29.045,34.337 C29.066,34.397 29.081,34.46 29.089,34.523 L29.122,34.782 C29.125,34.808 29.127,34.834 29.129,34.859 L29.135,35.019 C29.13575,35.044 29.13575,35.067 29.135,35.092 L29.129,35.253 C29.127,35.279 29.125,35.306 29.122,35.332 L29.09,35.587 C29.081,35.653 29.065,35.719 29.042,35.782 L29.037,35.798 C28.988,35.977 28.93,36.136 28.859,36.281 C28.854,36.293 28.848,36.305 28.842,36.316 C28.565,36.861 28.128,37.291 27.575,37.56 L27.533,37.581 C27.523,37.586 27.515,37.591 27.505,37.595 L16.989,42.732 C16.415,43.012 15.805,43.154 15.177,43.154" id="Fill-1" fill="#5D5E5B"></path><path d="M14.805,36.406 C14.174,36.406 13.564,36.265 12.992,35.984 L2.405,30.811 C1.441,30.342 0.842,29.383 0.842,28.308 C0.842,27.232 1.441,26.272 2.406,25.803 L6.588,23.759 C7.037,23.54 7.579,23.726 7.799,24.175 C8.019,24.624 7.832,25.167 7.383,25.387 L3.2,27.431 C2.862,27.595 2.653,27.931 2.653,28.308 C2.653,28.689 2.857,29.018 3.199,29.185 L13.788,34.357 C14.433,34.673 15.175,34.674 15.823,34.357 L26.41,29.185 C26.753,29.017 26.958,28.689 26.958,28.308 C26.958,27.932 26.748,27.595 26.411,27.431 L22.227,25.387 C21.778,25.167 21.592,24.624 21.811,24.175 C22.031,23.726 22.573,23.54 23.022,23.759 L27.205,25.803 C28.169,26.273 28.769,27.233 28.769,28.308 C28.769,29.381 28.17,30.341 27.205,30.811 L16.617,35.984 C16.043,36.265 15.434,36.406 14.805,36.406" id="Fill-2" fill="#D2262E"></path><path d="M15.156,13.943 C15.163,13.943 15.17,13.943 15.178,13.943 C15.53,13.943 15.872,14.023 16.195,14.181 L26.783,19.354 C27.042,19.48 27.224,19.704 27.295,19.985 C27.298,19.997 27.301,20.008 27.305,20.019 L27.32,20.146 L27.324,20.232 L27.305,20.443 C27.301,20.455 27.298,20.466 27.295,20.478 C27.276,20.549 27.258,20.606 27.237,20.651 C27.235,20.655 27.233,20.66 27.23,20.664 C27.136,20.858 26.98,21.012 26.783,21.108 L26.713,21.142 C26.703,21.146 26.693,21.151 26.684,21.157 L16.194,26.281 C15.545,26.598 14.804,26.597 14.16,26.281 L3.571,21.108 C3.312,20.982 3.131,20.758 3.06,20.478 C3.057,20.466 3.053,20.455 3.05,20.443 L3.033,20.315 L3.03,20.231 L3.033,20.144 L3.049,20.023 C3.054,20.008 3.058,19.992 3.061,19.977 C3.079,19.908 3.1,19.848 3.124,19.798 C3.219,19.604 3.375,19.451 3.568,19.355 L12.599,14.944 L15.156,13.943 Z M49.121,22.667 L49.121,6.373 C49.121,5.873 48.716,5.468 48.216,5.468 L46.994,5.468 C36.271,5.468 31.787,1.202 31.754,1.169 L30.879,0.273 C30.709,0.099 30.477,0.001 30.231,0 C29.989,0 29.757,0.097 29.587,0.269 L28.713,1.155 C28.669,1.198 24.185,5.468 13.456,5.468 L12.234,5.468 C11.734,5.468 11.329,5.873 11.329,6.373 L11.329,13.549 L2.853,17.69 L2.775,17.728 C2.222,17.999 1.769,18.451 1.498,19.001 C1.423,19.153 1.363,19.314 1.312,19.505 C1.29,19.566 1.274,19.63 1.266,19.694 L1.232,19.952 C1.228,19.981 1.226,20.011 1.225,20.041 L1.219,20.202 C1.219,20.222 1.219,20.241 1.219,20.26 L1.225,20.42 C1.226,20.451 1.228,20.481 1.232,20.512 L1.265,20.763 C1.273,20.828 1.289,20.892 1.316,20.969 C1.527,21.743 2.058,22.386 2.777,22.736 L13.364,27.908 C13.937,28.187 14.546,28.33 15.177,28.33 C15.805,28.33 16.415,28.188 16.989,27.908 L27.505,22.771 C27.514,22.767 27.522,22.762 27.531,22.758 L27.575,22.736 C28.128,22.467 28.565,22.037 28.842,21.492 C28.848,21.481 28.854,21.469 28.859,21.457 C28.93,21.312 28.988,21.153 29.042,20.958 C29.065,20.895 29.081,20.83 29.09,20.763 L29.122,20.508 C29.125,20.481 29.127,20.455 29.129,20.428 L29.135,20.267 C29.136,20.244 29.136,20.22 29.135,20.196 L29.129,20.036 C29.127,20.01 29.125,19.983 29.122,19.957 L29.089,19.699 C29.081,19.636 29.066,19.573 29.038,19.495 C28.828,18.721 28.298,18.078 27.577,17.727 L16.99,12.554 C16.423,12.276 15.819,12.135 15.194,12.132 C14.96,12.127 14.728,12.165 14.508,12.252 L13.14,12.788 L13.14,7.278 L13.456,7.278 C25.078,7.278 29.947,2.481 29.995,2.433 L30.228,2.198 L30.46,2.437 C30.508,2.485 35.358,7.278 46.994,7.278 C46.994,7.278 47.311,7.278 47.311,7.279 C47.311,11.594 47.311,15.91 47.311,20.226 C47.311,22.486 47.448,24.621 46.842,26.806 C46.273,28.851 45.325,30.78 44.193,32.568 C40.756,38.001 35.659,42.292 30.405,45.888 L30.231,46.007 L30.054,45.893 C26.846,43.818 24.017,41.578 21.646,39.234 C21.291,38.883 20.718,38.886 20.366,39.241 C20.015,39.598 20.018,40.17 20.373,40.522 C22.832,42.953 25.758,45.271 29.07,47.413 L29.753,47.854 C29.903,47.951 30.074,48 30.245,48 C30.424,48 30.603,47.947 30.756,47.842 L31.428,47.383 C39.114,42.122 44.414,36.582 47.18,30.914 C49.299,26.572 49.213,23.572 49.121,22.667 L49.121,22.667 Z" id="Fill-3" fill="#5D5E5B"></path></g></g></g></g></g></g></g></g></g></g></svg>