<svg class="mright5" fill="#474a50" width="16" height="16" viewBox="0 0 256 192" xmlns="http://www.w3.org/2000/svg"><path id="Mail" d="M234.5-224H21.5a20.749,20.749,0,0,0-15.25,6.25A20.749,20.749,0,0,0,0-202.5v149A20.749,20.749,0,0,0,6.25-38.25,20.749,20.749,0,0,0,21.5-32h213a20.749,20.749,0,0,0,15.25-6.25A20.749,20.749,0,0,0,256-53.5v-149a20.749,20.749,0,0,0-6.25-15.25A20.749,20.749,0,0,0,234.5-224Zm-213,10.5h213a3.838,3.838,0,0,1,1.5.5h.5l-103,83.5a10.833,10.833,0,0,1-11,0L19.5-213H20A3.838,3.838,0,0,1,21.5-213.5Zm224,160a10.58,10.58,0,0,1-3.25,7.75,10.58,10.58,0,0,1-7.75,3.25H21.5a10.58,10.58,0,0,1-7.75-3.25A10.58,10.58,0,0,1,10.5-53.5v-149a8.057,8.057,0,0,1,1-3.5l105,85a19.556,19.556,0,0,0,11.5,3.5,19.385,19.385,0,0,0,11-3l1-.5,104.5-85a8.058,8.058,0,0,1,1,3.5Z" transform="translate(0 224)"></path></svg>