<svg height="65" width="65" xmlns="http://www.w3.org/2000/svg" xmlns:xlink="http://www.w3.org/1999/xlink" version="1.1" id="Layer_1" x="0px" y="0px" viewBox="0 0 75 75" xml:space="preserve"><title>tv unit interior designs for home</title><g><g><g><g><path fill="#636462" d="M70.0817,72.30463H4.9184c-1.26089,0-2.28674-1.02573-2.28674-2.28663V39.41417      c0-1.26089,1.02585-2.28663,2.28674-2.28663h65.1633c1.26078,0,2.28663,1.02574,2.28663,2.28663V70.018      C72.36833,71.27889,71.34248,72.30463,70.0817,72.30463z M5.31714,69.61916h64.36572V39.81301H5.31714V69.61916z"></path></g><g><rect x="24.49624" y="39.59458" fill="#636462" width="2.68547" height="19.51654"></rect></g><g><rect x="47.8184" y="38.47498" fill="#636462" width="2.68547" height="21.19823"></rect></g><g><rect x="3.9744" y="58.82264" fill="#636462" width="47.79221" height="2.68547"></rect></g><g><rect x="49.16113" y="58.82264" fill="#636462" width="21.86447" height="2.68547"></rect></g><g><path fill="#E61E27" d="M17.09306,49.99903h-4.37285c-0.74152,0-1.34274-0.60122-1.34274-1.34274s0.60122-1.34274,1.34274-1.34274      h4.37285c0.74152,0,1.34274,0.60122,1.34274,1.34274S17.83458,49.99903,17.09306,49.99903z"></path></g><g><path fill="#E61E27" d="M62.2799,49.99903h-4.37285c-0.74152,0-1.34274-0.60122-1.34274-1.34274s0.60122-1.34274,1.34274-1.34274      h4.37285c0.74152,0,1.34274,0.60122,1.34274,1.34274S63.02142,49.99903,62.2799,49.99903z"></path></g><g><path fill="#636462" d="M58.42063,32.98876H16.57948c-1.26078,0-2.28663-1.02574-2.28663-2.28663V4.98211      c0-1.26089,1.02585-2.28674,2.28663-2.28674h41.84115c1.26078,0,2.28663,1.02585,2.28663,2.28674v25.72002      C60.70726,31.96302,59.68141,32.98876,58.42063,32.98876z M16.97832,30.30329h41.04346V5.38084H16.97832V30.30329z"></path></g><g><g><rect x="30.87839" y="30.64006" fill="#636462" width="2.68547" height="8.35046"></rect></g><g><rect x="41.43625" y="30.64006" fill="#636462" width="2.68547" height="8.35046"></rect></g></g></g></g></g></svg>