<svg xmlns="http://www.w3.org/2000/svg" width="33" height="32" viewBox="0 0 33 32" fill="none"><path d="M22 31H30C30.5523 31 31 30.5523 31 30V23.5H22V31Z" fill="#8CC0E5"></path><path d="M31 9C31 8.44772 30.5523 8 30 8H22V16.5H31V9Z" fill="#E71C24"></path><path d="M22 31H30C30.5523 31 31 30.5523 31 30V23.5M22 31V23.5M22 31H12M22 8V3C22 2.44772 21.5523 2 21 2H12M22 8H30C30.5523 8 31 8.44772 31 9V16.5M22 8V16.5M22 23.5H31M22 23.5V16.5M31 23.5V16.5M31 16.5H22M12 2H3C2.44772 2 2 2.44772 2 3V30C2 30.5523 2.44772 31 3 31H12M12 2V31" stroke="#333333"></path><path d="M8.7998 14.5V17.5M14.7998 14.5V17.5" stroke="#333333" stroke-linecap="round"></path></svg>