<svg xmlns="http://www.w3.org/2000/svg" width="34" height="32" viewBox="0 0 34 32" fill="none"><path d="M9.54554 17.6364H31.3637C32.2675 17.6364 33.0001 18.369 33.0001 19.2727C33.0001 20.1765 32.2675 20.9091 31.3637 20.9091H9.54554C8.6418 20.9091 7.90918 20.1765 7.90918 19.2727C7.90918 18.369 8.6418 17.6364 9.54554 17.6364Z" fill="#8CC0E5"></path><path d="M9.36373 20.9091V23.6364C9.48236 25.1787 10.7622 28.2305 14.9079 28.3594M31.5455 20.9091V23.2727C31.4161 27.0262 28.2059 28.1787 26.091 28.3444M26.091 28.3444C25.8291 28.3649 25.5841 28.3703 25.3637 28.3637H15.1819C15.0892 28.3637 14.9979 28.3622 14.9079 28.3594M26.091 28.3444L27.3637 30M14.9079 28.3594L13.3637 30M31.5455 17.2727V11.2727C31.6062 9.33336 30.6365 5.96366 26.2728 8.00002M9.54554 20.9091H31.3637C32.2675 20.9091 33.0001 20.1765 33.0001 19.2727C33.0001 18.369 32.2675 17.6364 31.3637 17.6364H9.54554C8.6418 17.6364 7.90918 18.369 7.90918 19.2727C7.90918 20.1765 8.6418 20.9091 9.54554 20.9091ZM25.0842 12.1121L22.493 9.63356C22.007 9.16865 22.0768 8.37311 22.6365 8.00002C23.3031 7.51517 25.0001 7.0182 26.4546 8.90911C26.9219 9.53207 27.4424 10.9288 26.3938 12.1393C26.0545 12.5309 25.4586 12.4702 25.0842 12.1121Z" stroke="#333333" stroke-linecap="round"></path><path d="M20.2729 11.2727L21.182 10.5454M21.9093 12.7272L22.6366 11.8181M23.182 14.1818L24.0911 13.2727" stroke="#E71C24" stroke-linecap="round"></path><path d="M12.9556 10.1078H4.57294H4.2981V11.6195C4.2981 11.7712 4.42115 11.8943 4.57294 11.8943H12.8182C12.97 11.8943 13.093 11.7712 13.093 11.6195V10.9323V10.1078H12.9556Z" fill="#E71C24"></path><path d="M2.64905 3.23679H4.2981M13.093 3.23679H14.3298M14.3298 3.23679H15.704M14.3298 3.23679V2.82452C14.3298 2.36915 13.9607 2 13.5053 2H13.3679M14.3298 3.23679V10.1078C14.3298 10.5632 13.9607 10.9323 13.5053 10.9323H13.093M13.093 10.9323V11.6195M13.093 10.9323V10.1078M5.80973 12.3066V12.9937M7.73362 12.3066V12.9937M9.52009 12.3066V12.9937M11.5814 12.3066V12.9937M13.093 11.6195C13.093 11.7712 12.97 11.8943 12.8182 11.8943H4.57294C4.42115 11.8943 4.2981 11.7712 4.2981 11.6195V10.1078M13.093 11.6195V10.1078M4.2981 10.1078V3.09937C4.2981 2.4922 4.7903 2 5.39746 2H13.093V10.1078M4.2981 10.1078H4.57294H12.9556H13.093M1.7611 4.47357C1.34076 4.47357 1 4.13282 1 3.71247V3.03594C1 2.6156 1.34076 2.27484 1.7611 2.27484C2.18144 2.27484 2.5222 2.6156 2.5222 3.03594V3.71247C2.5222 4.13282 2.18144 4.47357 1.7611 4.47357ZM16.6025 4.47357C16.1822 4.47357 15.8414 4.13282 15.8414 3.71247V3.03594C15.8414 2.6156 16.1822 2.27484 16.6025 2.27484C17.0229 2.27484 17.3636 2.6156 17.3636 3.03594V3.71247C17.3636 4.13282 17.0229 4.47357 16.6025 4.47357Z" stroke="#333333" stroke-width="0.8" stroke-linecap="round"></path></svg>