<svg xmlns="http://www.w3.org/2000/svg" width="100" height="100" viewBox="0 0 100 100" fill="none"><path d="M82.7215 80.2134L83.6879 81.5853L85.3105 81.1556L84.3043 82.4993L85.2145 83.9095L83.6254 83.3673L82.566 84.6688L82.5902 82.9907L81.0254 82.3845L82.6285 81.8892L82.7215 80.2134Z" fill="white"></path><path d="M82.7215 16.1509L83.6879 17.5228L85.3105 17.0932L84.3043 18.4366L85.2145 19.8468L83.6254 19.305L82.566 20.6062L82.5902 18.9281L81.0254 18.3221L82.6285 17.8267L82.7215 16.1509Z" fill="white"></path><path d="M15.5342 80.2134L16.5009 81.5853L18.1233 81.1556L17.1171 82.4993L18.0271 83.9095L16.4386 83.3673L15.3786 84.6688L15.403 82.9907L13.8379 82.3845L15.4415 81.8892L15.5342 80.2134Z" fill="white"></path><path d="M15.5342 16.1509L16.5009 17.5228L18.1233 17.0932L17.1171 18.4366L18.0271 19.8468L16.4386 19.305L15.3786 20.6063L15.403 18.9281L13.8379 18.3221L15.4415 17.8267L15.5342 16.1509Z" fill="white"></path><path d="M2.32867 62.7L5.00078 62.0946L4.28898 58.9531L5.13168 58.7622L5.84348 61.9037L9.12894 61.1592L9.36339 62.1939L1.72041 63.9257L0.65332 59.2162L1.49602 59.0253L2.32867 62.7Z" fill="white"></path><path d="M3.97509 54.7523C3.95384 54.4468 3.89875 54.1802 3.80982 53.9525C3.717 53.7214 3.59787 53.5323 3.45241 53.3853C3.30308 53.2349 3.13106 53.1262 2.93637 53.0593C2.74168 52.9925 2.52976 52.9671 2.30063 52.983C1.83509 53.0153 1.49474 53.1925 1.27958 53.5145C1.06442 53.8364 0.978093 54.3029 1.02059 54.9139L1.10103 56.0705L4.0525 55.8653L3.97509 54.7523ZM7.75556 50.8604L7.82086 51.7987C7.83422 51.9914 7.76954 52.1385 7.62675 52.2398L4.97465 54.4636C4.89166 54.5314 4.83451 54.603 4.80319 54.6782C4.768 54.7502 4.75558 54.8607 4.76595 55.0098L4.82173 55.8118L8.08414 55.5849L8.15742 56.6378L0.339564 57.1815L0.185888 54.972C0.151485 54.4774 0.17268 54.0464 0.249474 53.6793C0.322631 53.3125 0.445678 53.006 0.618614 52.7601C0.791296 52.5105 1.00829 52.32 1.26959 52.1886C1.52725 52.0573 1.82157 51.9802 2.15254 51.9572C2.42895 51.938 2.69023 51.9636 2.93633 52.0343C3.18245 52.1049 3.40771 52.2171 3.61211 52.371C3.81262 52.5215 3.98851 52.7121 4.13978 52.9428C4.29079 53.1698 4.41134 53.4319 4.50144 53.7289C4.56847 53.5891 4.6713 53.465 4.80995 53.3567L7.75556 50.8604Z" fill="white"></path><path d="M7.38959 44.4275L8.24945 44.5128L7.80318 49.3211L0 48.5968L0.446276 43.7886L1.30664 43.8684L0.958414 47.6203L3.5504 47.8608L3.83241 44.8223L4.66011 44.8991L4.37809 47.9376L7.04087 48.1848L7.38959 44.4275Z" fill="white"></path><path d="M8.84135 38.0185L9.67815 38.2339L8.50377 42.9179L0.902344 41.012L2.07668 36.3281L2.9148 36.5383L1.99848 40.1931L4.52345 40.8262L5.26556 37.8662L6.07185 38.0684L5.32975 41.0283L7.9237 41.6787L8.84135 38.0185Z" fill="white"></path><path d="M97.6711 37.2999L94.9992 37.9053L95.7109 41.0468L94.8687 41.2377L94.1562 38.0962L90.8711 38.8407L90.6367 37.806L98.2797 36.0742L99.3469 40.7837L98.5039 40.9747L97.6711 37.2999Z" fill="white"></path><path d="M96.0238 45.2476C96.0449 45.553 96.1004 45.8197 96.1895 46.0474C96.2816 46.2785 96.4012 46.4676 96.5465 46.6146C96.6957 46.765 96.8676 46.8737 97.0629 46.9405C97.2574 47.0073 97.4691 47.0328 97.698 47.0169C98.1637 46.9845 98.5043 46.8073 98.7191 46.4854C98.9348 46.1634 99.0207 45.697 98.9785 45.0859L98.898 43.9294L95.9465 44.1346L96.0238 45.2476ZM92.2434 49.1395L92.1777 48.2012C92.1645 48.0084 92.2293 47.8614 92.3723 47.7601L95.0246 45.5363C95.1074 45.4684 95.1645 45.3969 95.1957 45.3216C95.2309 45.2497 95.2434 45.1392 95.2332 44.9901L95.177 44.1881L91.9145 44.415L91.8418 43.3621L99.659 42.8184L99.8129 45.0279C99.8473 45.5225 99.8262 45.9534 99.7496 46.3205C99.6762 46.6874 99.5535 46.9938 99.3801 47.2398C99.2074 47.4894 98.9902 47.6798 98.7293 47.8113C98.4715 47.9426 98.177 48.0197 97.8465 48.0427C97.5699 48.062 97.309 48.0363 97.0629 47.9656C96.8168 47.8951 96.591 47.7828 96.3871 47.6289C96.1863 47.4784 96.0105 47.2878 95.859 47.0571C95.7082 46.8301 95.5879 46.568 95.4973 46.2709C95.4301 46.4108 95.3277 46.5349 95.1887 46.6432L92.2434 49.1395Z" fill="white"></path><path d="M92.6094 55.5723L91.75 55.487L92.1961 50.6787L99.9992 51.403L99.5531 56.2112L98.6922 56.1314L99.0406 52.3795L96.4484 52.1389L96.1672 55.1775L95.3391 55.1007L95.6211 52.0621L92.9586 51.815L92.6094 55.5723Z" fill="white"></path><path d="M91.159 61.9814L90.3223 61.766L91.4965 57.082L99.098 58.9879L97.923 63.6718L97.0855 63.4616L98.002 59.8068L95.477 59.1737L94.7348 62.1338L93.9285 61.9316L94.6707 58.9716L92.0762 58.3212L91.159 61.9814Z" fill="white"></path><path d="M62.6995 97.6711L62.0941 94.9992L58.9527 95.7109L58.7617 94.8687L61.9032 94.1562L61.1588 90.8711L62.1934 90.6367L63.9252 98.2797L59.2157 99.3469L59.0248 98.5039L62.6995 97.6711Z" fill="white"></path><path d="M54.7523 96.0243C54.4468 96.0454 54.1802 96.1009 53.9525 96.1899C53.7214 96.2821 53.5323 96.4017 53.3853 96.547C53.2349 96.6962 53.1262 96.8681 53.0593 97.0634C52.9925 97.2579 52.9671 97.4696 52.983 97.6985C53.0153 98.1642 53.1925 98.5048 53.5145 98.7196C53.8364 98.9353 54.3029 99.0212 54.9139 98.979L56.0705 98.8985L55.8653 95.947L54.7523 96.0243ZM50.8604 92.2438L51.7987 92.1782C51.9914 92.1649 52.1385 92.2298 52.2398 92.3728L54.4636 95.0251C54.5314 95.1079 54.603 95.1649 54.6782 95.1962C54.7502 95.2313 54.8607 95.2439 55.0098 95.2337L55.8118 95.1774L55.5849 91.9149L56.6378 91.8423L57.1815 99.6595L54.972 99.8134C54.4774 99.8478 54.0464 99.8267 53.6793 99.7501C53.3125 99.6767 53.006 99.554 52.7601 99.3806C52.5105 99.2079 52.32 98.9907 52.1886 98.7298C52.0573 98.472 51.9802 98.1774 51.9572 97.847C51.938 97.5704 51.9636 97.3095 52.0343 97.0634C52.1049 96.8173 52.2171 96.5915 52.371 96.3876C52.5215 96.1868 52.7121 96.011 52.9428 95.8595C53.1698 95.7087 53.4319 95.5884 53.7289 95.4978C53.5891 95.4306 53.465 95.3282 53.3567 95.1892L50.8604 92.2438Z" fill="white"></path><path d="M44.428 92.6104L44.5133 91.751L49.3216 92.1971L48.5973 100L43.7891 99.5541L43.8689 98.6932L47.6208 99.0416L47.8613 96.4494L44.8228 96.1682L44.8996 95.34L47.9381 95.6221L48.1853 92.9596L44.428 92.6104Z" fill="white"></path><path d="M38.0185 91.1585L38.2339 90.3218L42.9179 91.496L41.012 99.0976L36.3281 97.9226L36.5383 97.0851L40.1931 98.0015L40.8262 95.4765L37.8662 94.7343L38.0684 93.928L41.0283 94.6702L41.6787 92.0757L38.0185 91.1585Z" fill="white"></path><path d="M37.2999 2.32867L37.9053 5.00078L41.0468 4.28898L41.2377 5.13168L38.0962 5.84348L38.8407 9.12894L37.806 9.36339L36.0742 1.72041L40.7837 0.65332L40.9747 1.49602L37.2999 2.32867Z" fill="white"></path><path d="M45.2476 3.97607C45.553 3.95482 45.8197 3.89973 46.0474 3.8108C46.2785 3.71798 46.4676 3.59884 46.6146 3.4534C46.765 3.30406 46.8737 3.13205 46.9405 2.93735C47.0073 2.74266 47.0328 2.53074 47.0169 2.30161C46.9845 1.83607 46.8073 1.49572 46.4854 1.28055C46.1634 1.0654 45.697 0.979069 45.0859 1.02157L43.9294 1.10201L44.1346 4.05348L45.2476 3.97607ZM49.1395 7.75654L48.2012 7.82183C48.0084 7.83519 47.8614 7.77052 47.7601 7.62772L45.5363 4.97562C45.4684 4.89264 45.3969 4.83548 45.3216 4.80417C45.2497 4.76898 45.1392 4.75655 44.9901 4.76693L44.1881 4.8227L44.415 8.08512L43.3621 8.1584L42.8184 0.340537L45.0279 0.186864C45.5225 0.152461 45.9534 0.173657 46.3205 0.250451C46.6874 0.323608 46.9938 0.446652 47.2398 0.619589C47.4894 0.792272 47.6798 1.00926 47.8113 1.27057C47.9426 1.52823 48.0197 1.82255 48.0427 2.15351C48.062 2.42993 48.0363 2.6912 47.9656 2.93731C47.8951 3.18343 47.7828 3.40869 47.6289 3.61308C47.4784 3.8136 47.2878 3.98948 47.0571 4.14075C46.8301 4.29176 46.568 4.41233 46.2709 4.50243C46.4108 4.56944 46.5349 4.67227 46.6432 4.81093L49.1395 7.75654Z" fill="white"></path><path d="M55.5733 7.3896L55.488 8.24945L50.6797 7.80318L51.404 0L56.2122 0.446278L56.1323 1.30664L52.3805 0.958414L52.1399 3.5504L55.1784 3.83241L55.1016 4.66011L52.0631 4.37809L51.8159 7.04087L55.5733 7.3896Z" fill="white"></path><path d="M61.9814 8.84184L61.766 9.67864L57.082 8.50426L58.9879 0.902832L63.6718 2.07717L63.4616 2.91529L59.8068 1.99896L59.1737 4.52394L62.1338 5.26605L61.9316 6.07234L58.9716 5.33024L58.3212 7.92418L61.9814 8.84184Z" fill="white"></path></svg>