<svg xmlns="http://www.w3.org/2000/svg" xmlns:xlink="http://www.w3.org/1999/xlink" width="72px" height="72px" viewBox="0 0 72 72" version="1.1"><g id="Page-1" stroke="none" stroke-width="1" fill="none" fill-rule="evenodd"><g id="D1" transform="translate(-491.000000, -5156.000000)"><g id="Group-70" transform="translate(0.000000, 5031.000000)"><g id="Group-76"><g id="Group-17"><g id="Group-67" transform="translate(383.000000, 125.000000)"><g id="Rectangle-4" transform="translate(108.000000, 0.000000)"><rect id="Rectangle" x="0" y="0" width="72" height="72"></rect><g id="RTB-01-copy-01" transform="translate(12.000000, 12.000000)"><path d="M5.13,2.118 C3.469,2.118 2.118,3.469 2.118,5.13 L2.118,42.869 C2.118,44.53 3.469,45.882 5.13,45.882 L42.869,45.882 C44.53,45.882 45.882,44.53 45.882,42.869 L45.882,5.13 C45.882,3.469 44.53,2.118 42.869,2.118 L5.13,2.118 Z M42.869,47.643 L5.13,47.643 C2.498,47.643 0.357,45.501 0.357,42.869 L0.357,5.13 C0.357,2.499 2.498,0.358 5.13,0.358 L42.869,0.358 C45.501,0.358 47.643,2.499 47.643,5.13 L47.643,42.869 C47.643,45.501 45.501,47.643 42.869,47.643 L42.869,47.643 Z" id="Fill-1" fill="#5D5E5B"></path><path d="M46.524,14.89 L1.578,14.89 C1.092,14.89 0.698,14.496 0.698,14.009 C0.698,13.523 1.092,13.129 1.578,13.129 L46.524,13.129 C47.01,13.129 47.404,13.523 47.404,14.009 C47.404,14.496 47.01,14.89 46.524,14.89" id="Fill-2" fill="#5D5E5B"></path><path d="M19.062,7.623 C19.062,8.898 18.029,9.932 16.754,9.932 C15.48,9.932 14.447,8.898 14.447,7.623 C14.447,6.349 15.48,5.316 16.754,5.316 C18.029,5.316 19.062,6.349 19.062,7.623" id="Fill-3" fill="#D2262E"></path><path d="M33.553,7.623 C33.553,8.898 32.52,9.932 31.245,9.932 C29.971,9.932 28.937,8.898 28.937,7.623 C28.937,6.349 29.971,5.316 31.245,5.316 C32.52,5.316 33.553,6.349 33.553,7.623" id="Fill-4" fill="#D2262E"></path><path d="M19.754,24.114 C19.754,23.869 19.763,23.603 19.78,23.319 C19.798,23.035 19.824,22.741 19.859,22.439 L15.803,28.118 L19.754,28.118 L19.754,24.114 Z M22.599,28.118 L24.179,28.118 L24.179,29.951 C24.179,30.113 24.125,30.253 24.016,30.373 C23.907,30.492 23.751,30.552 23.547,30.552 L22.599,30.552 L22.599,34.081 L19.754,34.081 L19.754,30.552 L13.58,30.552 C13.376,30.552 13.192,30.488 13.027,30.362 C12.862,30.235 12.758,30.078 12.716,29.888 L12.379,28.276 L19.48,18.73 L22.599,18.73 L22.599,28.118 L22.599,28.118 Z" id="Fill-5" fill="#D2262E"></path><path d="M35.052,20.079 C35.052,20.304 35.017,20.508 34.946,20.69 C34.876,20.873 34.766,21.033 34.615,21.169 C34.464,21.307 34.266,21.412 34.02,21.486 C33.773,21.56 33.479,21.596 33.135,21.596 L29.468,21.596 L29.036,24.135 C29.324,24.086 29.602,24.049 29.868,24.025 C30.135,24 30.395,23.988 30.648,23.988 C31.456,23.988 32.169,24.111 32.787,24.356 C33.405,24.603 33.925,24.938 34.346,25.363 C34.768,25.788 35.085,26.286 35.3,26.859 C35.514,27.432 35.621,28.044 35.621,28.697 C35.621,29.519 35.476,30.269 35.184,30.947 C34.893,31.625 34.486,32.21 33.967,32.701 C33.447,33.192 32.827,33.574 32.107,33.845 C31.388,34.114 30.599,34.25 29.742,34.25 C29.243,34.25 28.768,34.197 28.314,34.092 C27.861,33.986 27.436,33.845 27.039,33.665 C26.643,33.486 26.275,33.279 25.938,33.044 C25.602,32.809 25.296,32.558 25.021,32.29 L26.033,30.941 C26.139,30.801 26.262,30.694 26.402,30.62 C26.542,30.547 26.693,30.51 26.855,30.51 C27.065,30.51 27.264,30.567 27.45,30.684 C27.637,30.8 27.84,30.926 28.062,31.062 C28.283,31.2 28.541,31.324 28.836,31.436 C29.131,31.549 29.496,31.605 29.932,31.605 C30.367,31.605 30.739,31.533 31.049,31.39 C31.357,31.245 31.608,31.049 31.802,30.8 C31.995,30.55 32.136,30.259 32.224,29.925 C32.31,29.592 32.354,29.234 32.354,28.855 C32.354,28.111 32.145,27.544 31.723,27.154 C31.302,26.764 30.704,26.569 29.932,26.569 C29.243,26.569 28.568,26.699 27.909,26.959 L25.886,26.411 L27.192,18.73 L35.052,18.73 L35.052,20.079" id="Fill-6" fill="#D2262E"></path><path d="M18.478,39.129 C18.478,38.865 18.444,38.627 18.376,38.415 C18.308,38.203 18.209,38.022 18.081,37.875 C17.953,37.727 17.796,37.614 17.61,37.534 C17.425,37.455 17.214,37.415 16.977,37.415 L16.15,37.415 L16.15,40.847 L16.977,40.847 C17.214,40.847 17.425,40.807 17.61,40.727 C17.796,40.648 17.953,40.534 18.081,40.387 C18.209,40.239 18.308,40.059 18.376,39.847 C18.444,39.635 18.478,39.395 18.478,39.129 Z M19.746,39.129 C19.746,39.515 19.679,39.87 19.546,40.196 C19.413,40.522 19.226,40.804 18.984,41.042 C18.742,41.28 18.451,41.466 18.11,41.599 C17.77,41.731 17.392,41.798 16.977,41.798 L14.905,41.798 L14.905,36.464 L16.977,36.464 C17.392,36.464 17.77,36.53 18.11,36.665 C18.451,36.799 18.742,36.984 18.984,37.222 C19.226,37.458 19.413,37.739 19.546,38.065 C19.679,38.392 19.746,38.746 19.746,39.129 L19.746,39.129 Z" id="Fill-7" fill="#D2262E"></path><path d="M21.657,39.759 L23.114,39.759 L22.623,38.298 C22.591,38.205 22.554,38.096 22.512,37.97 C22.469,37.845 22.427,37.708 22.385,37.561 C22.346,37.711 22.306,37.849 22.264,37.976 C22.223,38.102 22.184,38.213 22.147,38.305 L21.657,39.759 Z M25.084,41.798 L24.124,41.798 C24.017,41.798 23.929,41.773 23.859,41.724 C23.79,41.673 23.741,41.609 23.714,41.531 L23.399,40.601 L21.371,40.601 L21.056,41.531 C21.032,41.6 20.984,41.661 20.913,41.716 C20.842,41.77 20.756,41.798 20.653,41.798 L19.687,41.798 L21.752,36.464 L23.019,36.464 L25.084,41.798 L25.084,41.798 Z" id="Fill-8" fill="#D2262E"></path><path d="M27.442,39.769 L27.442,41.798 L26.204,41.798 L26.204,39.769 L24.271,36.464 L25.362,36.464 C25.47,36.464 25.555,36.488 25.618,36.538 C25.682,36.589 25.733,36.652 25.772,36.73 L26.526,38.283 C26.587,38.408 26.644,38.522 26.695,38.627 C26.746,38.732 26.791,38.836 26.83,38.938 C26.867,38.834 26.911,38.728 26.962,38.624 C27.014,38.519 27.068,38.405 27.127,38.283 L27.874,36.73 C27.889,36.699 27.908,36.667 27.935,36.636 C27.96,36.603 27.989,36.575 28.022,36.55 C28.056,36.523 28.093,36.503 28.136,36.487 C28.179,36.472 28.226,36.464 28.276,36.464 L29.375,36.464 L27.442,39.769" id="Fill-9" fill="#D2262E"></path><path d="M32.715,37.547 C32.678,37.605 32.64,37.649 32.599,37.679 C32.559,37.708 32.507,37.723 32.443,37.723 C32.388,37.723 32.327,37.705 32.263,37.67 C32.197,37.635 32.124,37.595 32.043,37.551 C31.961,37.507 31.867,37.468 31.763,37.432 C31.657,37.396 31.538,37.379 31.403,37.379 C31.172,37.379 30.999,37.429 30.886,37.527 C30.772,37.626 30.716,37.76 30.716,37.928 C30.716,38.035 30.749,38.125 30.818,38.195 C30.886,38.267 30.976,38.327 31.087,38.379 C31.198,38.43 31.325,38.477 31.468,38.519 C31.61,38.562 31.757,38.609 31.905,38.662 C32.054,38.715 32.2,38.776 32.343,38.847 C32.485,38.918 32.612,39.008 32.724,39.118 C32.835,39.227 32.925,39.361 32.992,39.519 C33.061,39.677 33.096,39.866 33.096,40.088 C33.096,40.335 33.053,40.565 32.967,40.78 C32.882,40.995 32.758,41.183 32.596,41.343 C32.434,41.502 32.232,41.628 31.995,41.72 C31.757,41.811 31.486,41.856 31.184,41.856 C31.018,41.856 30.849,41.84 30.677,41.806 C30.505,41.771 30.338,41.724 30.177,41.661 C30.016,41.599 29.864,41.525 29.723,41.439 C29.581,41.354 29.458,41.259 29.354,41.154 L29.72,40.575 C29.746,40.531 29.784,40.496 29.833,40.469 C29.882,40.442 29.935,40.429 29.99,40.429 C30.063,40.429 30.138,40.452 30.212,40.498 C30.286,40.545 30.37,40.596 30.465,40.652 C30.559,40.708 30.666,40.76 30.788,40.806 C30.91,40.852 31.055,40.876 31.221,40.876 C31.445,40.876 31.62,40.826 31.744,40.727 C31.869,40.629 31.931,40.472 31.931,40.257 C31.931,40.132 31.896,40.031 31.828,39.953 C31.76,39.875 31.67,39.81 31.56,39.759 C31.448,39.708 31.322,39.662 31.181,39.623 C31.039,39.584 30.894,39.541 30.744,39.493 C30.596,39.445 30.45,39.387 30.309,39.317 C30.167,39.248 30.041,39.156 29.93,39.043 C29.818,38.93 29.729,38.788 29.661,38.618 C29.593,38.448 29.559,38.239 29.559,37.99 C29.559,37.79 29.599,37.595 29.679,37.404 C29.76,37.214 29.878,37.044 30.034,36.895 C30.19,36.747 30.382,36.628 30.609,36.538 C30.836,36.449 31.096,36.405 31.389,36.405 C31.553,36.405 31.712,36.418 31.867,36.443 C32.021,36.469 32.169,36.507 32.308,36.557 C32.447,36.606 32.577,36.667 32.698,36.736 C32.818,36.806 32.927,36.885 33.022,36.973 L32.715,37.547" id="Fill-10" fill="#D2262E"></path></g></g></g></g></g></g></g></g></svg>