<svg width="267px" height="172px" version="1.1" id="Layer_1" xmlns="http://www.w3.org/2000/svg" xmlns:xlink="http://www.w3.org/1999/xlink" x="0px" y="0px" viewBox="0 0 267 172" enable-background="new 0 0 267 172" xml:space="preserve"><g><g><g><g><circle fill="#FFFFFF" cx="211.17" cy="50.27" r="38.3"></circle><path fill="#4678B0" d="M211.17,89.15c-21.44,0-38.88-17.44-38.88-38.88c0-21.44,17.44-38.88,38.88-38.88 s38.88,17.44,38.88,38.88C250.05,71.71,232.61,89.15,211.17,89.15z M211.17,12.54c-20.8,0-37.73,16.92-37.73,37.73 s16.92,37.73,37.73,37.73s37.73-16.92,37.73-37.73S231.97,12.54,211.17,12.54z"></path></g><path fill="#4678B0" d="M184.7,50.22c1.25,0.31,2.39-0.64,3.68-0.69c0.22-0.01,0.44,0,0.64,0.08c0.79,0.3,0.61,0.96,0.76,1.58 c0.2,0.87,0.93,0.87,1.68,1.12c1.23,0.41,2.25,1.92,2.12,3.21c-0.19,1.73-1.91,2.9-2.45,4.55c-0.87,2.65,1.5,5.45,0.95,8.18 c-0.04,0.2-0.11,0.41-0.27,0.52c-0.2,0.13-0.47,0.07-0.71,0.03c-0.47-0.08-0.99-0.05-1.39,0.2c-0.4,0.26-0.66,0.78-0.5,1.24 c0.1,0.28,0.33,0.49,0.51,0.72c0.64,0.82,0.67,1.94,0.67,2.98c0.01,2.01-0.12,6.39-0.11,8.41c-5.98-3.66-8.8-7.58-9.9-9.26 c-5.34-8.1-6.45-13.42-7.46-19.03c-0.57-3.18-0.51-7.65,1.07-10.47c0.83-1.48,2.4-2.77,4.07-2.49c1.23,0.2,2.39,1.18,2.62,2.4 C181.09,45.7,182.19,49.59,184.7,50.22z"></path><path fill="#4678B0" d="M227.72,76.72c4.57-0.68,7.74-4.76,10.4-8.53c2.47-3.51,5.02-7.26,5.34-11.54 c0.11-1.5-0.06-3.02,0.28-4.49c0.31-1.36,1.03-2.57,1.67-3.8c1.29-2.48,2.32-5.36,1.5-8.03c-0.63-0.24-0.86,1.06-1.53,1.11 c-0.98,0.08-0.44-2.12-1.42-2.28c0.97-0.2,1.65-1.14,1.81-2.11c0.16-0.97-0.09-1.97-0.42-2.9c-0.68-1.94-1.67-3.76-2.81-5.48 c-3.17-4.77-7.53-8.74-12.57-11.45c-3.24-1.74-6.73-2.96-10.26-3.99c-1.85-0.54-4.15-0.91-5.42,0.53 c0.99,0.69,1.97,1.38,2.96,2.07c-0.11,0.39-0.66,0.48-1.02,0.3c-0.36-0.18-0.61-0.52-0.9-0.8c-0.73-0.69-1.85-0.93-2.81-0.61 c-0.17,0.06-0.34,0.13-0.44,0.27c-0.34,0.45,0.18,1.03,0.64,1.34c0.95,0.66,1.91,1.32,2.86,1.98c-0.61,0.38-1.38,0.33-2.1,0.29 s-1.5-0.07-2.08,0.36c-0.58,0.43-0.7,1.48-0.06,1.8c0.73-0.66,2.07,0.12,2.04,1.1c-0.03,0.98-1.12,1.7-2.09,1.56 c0.29,1.19-1.02,2.08-2.02,2.79c-2.03,1.45-3.42,3.75-3.78,6.22c0.62-0.19,1.2,0.48,1.26,1.12c0.06,0.64-0.21,1.26-0.33,1.89 c-0.26,1.46,0.32,2.94,0.98,4.27c1.35,2.71,3.29,5.36,6.15,6.35c0.46,0.16,0.96,0.27,1.42,0.14c0.46-0.13,0.82-0.48,1.18-0.79 c1.34-1.2,3.01-2.17,4.8-2.18c1.16-0.01,2.6,0.94,2.13,2c0.79,0.01,1.57-0.21,2.37-0.23c0.79-0.01,1.67,0.25,2.06,0.94 c0.86,1.54-1.36,3.2-1.21,4.95c0.06,0.75,0.55,1.38,0.89,2.06c1.71,3.47-0.78,7.85,0.65,11.44c0.37,0.93,1,1.78,1.19,2.77 c0.35,1.91-1.05,3.73-1.1,5.67C227.89,74.15,228.45,75.62,227.72,76.72z"></path><path fill="#FFFFFF" d="M235.05,23.42c-1.03-0.24-2.06-0.49-3.09-0.73c-0.23-0.05-0.47-0.12-0.63-0.3 c-0.2-0.24-0.16-0.6-0.2-0.92c-0.11-0.81-0.92-1.46-1.73-1.38c0.25,0.73-0.59,1.45-1.36,1.41c-0.77-0.04-1.42-0.56-2.02-1.03 c-1.34-1.05-2.8-2.03-4.46-2.36c-1.67-0.33-3.59,0.13-4.58,1.51c-0.53,0.74-0.75,1.65-0.95,2.53c-0.06,0.25-0.12,0.5-0.17,0.75 c0.85,0.04,1.64-0.42,2.34-0.9c0.71-0.48,1.43-1,2.28-1.1c0.85-0.1,1.84,0.4,1.93,1.25c0.02,0.2-0.01,0.41,0.05,0.61 c0.18,0.6,0.97,0.69,1.57,0.87c0.84,0.25,1.49,0.89,2.21,1.39c0.72,0.5,1.63,0.89,2.45,0.57c0.02-0.57,0.15-1.13,0.4-1.64 c1.22,0.3,2.44,0.61,3.66,0.91c0.59,0.15,1.24,0.29,1.8,0.06C235.11,24.66,235.46,23.87,235.05,23.42z"></path><path fill="#FFFFFF" d="M241.05,35.26c0.21,0.47,0.37,0.98,0.68,1.39c0.3,0.41,0.74,0.71,1.22,0.85 c0.08,0.02,0.16,0.04,0.24,0.02c0.19-0.05,0.27-0.27,0.28-0.46c0.05-0.98-0.77-1.74-1.44-2.46c-1.5-1.63-2.4-3.71-3.53-5.62 c-0.48-0.81-1.22-1.7-2.15-1.58C236.96,30.42,239.82,32.44,241.05,35.26z"></path></g><g><g><polygon fill="#FFFFFF" points="226.64,167.02 218.73,167.02 215.64,146.29 229.72,146.29 				"></polygon><path fill="#4678B0" d="M227.14,167.6h-8.9l-3.26-21.89h15.42L227.14,167.6z M219.23,166.45h6.91l2.91-19.58h-12.74 L219.23,166.45z"></path></g><path fill="#4678B0" d="M227.46,141.47h-9.55c-1.25,0-2.27,1.01-2.27,2.27v1.69h14.08v-1.69 C229.72,142.48,228.71,141.47,227.46,141.47z"></path><rect x="214.25" y="143.98" fill="#4678B0" width="16.88" height="4.24"></rect></g><g><path fill="#E0666B" d="M119.71,95.18c0,0,8.11-2.91,15.35-3.64c7.24-0.72,21.01,1.5,26.18,3.79 c9.16,33.92,24.54,71.71,24.54,71.71h-77.31L119.71,95.18z"></path><g><path fill="#E0666B" d="M72.05,153.05c0,0,18.15-45.35,46.39-57.43c3.05,4.8,10.01,18.12,10.01,18.12l-37.32,47.6L72.05,153.05z "></path><ellipse transform="matrix(0.2298 -0.9732 0.9732 0.2298 -89.6236 200.3462)" fill="#F08D48" cx="81.76" cy="156.8" rx="10.41" ry="10.41"></ellipse><circle fill="#E0666B" cx="122.49" cy="105.21" r="10.41"></circle></g><ellipse transform="matrix(0.9264 -0.3766 0.3766 0.9264 -28.2995 67.3032)" fill="#E0666B" cx="157.97" cy="106.02" rx="10.41" ry="10.41"></ellipse><g><circle fill="#F08D48" cx="196.22" cy="157.29" r="10.41"></circle><path fill="#B43334" d="M206.01,153.75c0,0-17.18-45.73-45.16-58.41C157.7,100.07,160,115,160,115l27.74,48.16L206.01,153.75z"></path></g><g><ellipse transform="matrix(0.2298 -0.9732 0.9732 0.2298 -89.6236 200.3462)" fill="#E0666B" cx="81.76" cy="156.8" rx="10.41" ry="10.41"></ellipse><path fill="#E0666B" d="M81.76,167.2h53.44v-11.95c0,0-21.59-6.92-53.44-8.82C81.76,150.37,81.76,167.2,81.76,167.2z"></path><g><path fill="#4678B0" d="M135.03,155.81c-0.17-0.05-17.06-5.4-42.53-7.94l0.11-1.15c25.61,2.54,42.6,7.93,42.77,7.98 L135.03,155.81z"></path></g><g><path fill="#4678B0" d="M99.96,148.29c-3.59-2.08-12.55-5.91-12.64-5.95l0.45-1.06c0.37,0.16,9.12,3.9,12.77,6.01L99.96,148.29 z"></path></g></g><g><g><circle fill="#E0666B" cx="196.26" cy="157.26" r="10.41"></circle><path fill="#FACFB4" d="M197.71,89.49l10.79,1.13l-1.64,58.9L187,146C187,146,189.45,106.99,197.71,89.49z"></path><path fill="#E0666B" d="M188.33,127.28c-1.46,9.33-2.48,19.86-2.47,30.98l20.75,0.17l0.86-31.15H188.33z"></path></g><polygon fill="#4678B0" points="205.99,111.02 191.49,111.02 192.54,106.71 205.99,106.71 				"></polygon><g><rect x="192.02" y="110.82" transform="matrix(0.0273 -0.9996 0.9996 0.0273 90.8662 316.1844)" display="none" fill="#284180" width="31.78" height="1.16"></rect></g><g><path display="none" fill="#284180" d="M186.61,147.26l-1.15-0.09c3.06-38.36,11.2-56.83,12.12-58.81l1.08,0.41l-0.03,0.07 C197.72,90.8,189.66,109.1,186.61,147.26z"></path></g><g><g><path fill="#FACFB4" d="M202.7,85.25l0.24,10.77c0,0,9.11-0.18,18.61-3.86c7.51-3.05,7.78-3.78,7.78-3.78l7.69-14.48 c0,0,0.09-1.99-1.36-1.9l1.36-2.17c0,0,0-0.01,0-0.02c-0.22-1.13-1.67-1.48-2.41-0.6c-3.2,3.78-12.16,14.2-12.16,14.2 s-2.72,0.72-3.62,0.18c1.78-4.9,4.11-11.08,5.03-13.52c0.22-0.58-0.09-1.22-0.67-1.42l-0.02-0.01c-0.48-0.16-1,0.02-1.27,0.45 l-9.13,14.31L202.7,85.25z"></path><circle fill="#FACFB4" cx="203.1" cy="90.63" r="5.39"></circle></g><g><path display="none" fill="#284180" d="M203.7,96.57l-0.06-1.16c2.16-0.12,9.83-0.74,17.7-3.79c6.23-2.53,7.36-3.42,7.51-3.56 l7.8-14.2c-0.03-0.27-0.13-0.75-0.38-0.98c-0.08-0.07-0.21-0.15-0.47-0.14l-1.11,0.07l1.81-2.96 c-0.14-0.27-0.41-0.42-0.64-0.48c-0.12-0.03-0.54-0.1-0.81,0.22c-3.16,3.74-12.08,14.1-12.16,14.21l-0.12,0.14l-0.17,0.05 c-0.49,0.13-3.01,0.75-4.07,0.12l-0.41-0.25l0.16-0.45c1.78-4.91,4.11-11.09,5.03-13.53c0.05-0.13,0.04-0.27-0.02-0.4 c-0.06-0.13-0.17-0.22-0.3-0.27c-0.24-0.08-0.49,0-0.62,0.2l-9.27,14.53l-10.38,1.9c-1.86,0.14-3.49,1.35-4.15,3.09 l-0.98,2.31l-1.13-0.28l1.02-2.43c0.82-2.16,2.82-3.66,5.12-3.84l9.8-1.79l9-14.1c0.42-0.65,1.22-0.93,1.95-0.68 c0.45,0.15,0.8,0.46,0.99,0.88c0.19,0.41,0.21,0.87,0.05,1.3c-0.88,2.33-3.07,8.13-4.82,12.93c0.63,0.05,1.66-0.09,2.54-0.31 c1.07-1.25,9.08-10.56,12.04-14.06c0.47-0.55,1.22-0.78,1.97-0.59c0.8,0.2,1.4,0.79,1.56,1.55l0.05,0.23l-1.07,1.75 c0.13,0.07,0.26,0.16,0.37,0.26c0.72,0.67,0.76,1.82,0.76,1.95l0,0.15l-7.98,14.53l0,0c-0.41,0.67-3.12,2.03-8.07,4.04 C213.73,95.81,205.91,96.45,203.7,96.57z"></path></g></g><path fill="#4678B0" d="M209.8,108.7c0,2.7-1.45,5.19-3.23,5.4c-3.23,0.39-4.77-1.88-4.92-5.15c-0.16-3.48,1.97-5.24,3.76-5.36 C208.87,103.36,209.8,106,209.8,108.7z"></path><g><ellipse fill="#FFFFFF" cx="206.35" cy="108.86" rx="3.25" ry="4.89"></ellipse><path fill="#4678B0" d="M206.35,114.33c-2.15,0-3.83-2.4-3.83-5.47c0-3.07,1.68-5.47,3.83-5.47c2.15,0,3.83,2.4,3.83,5.47 C210.17,111.93,208.49,114.33,206.35,114.33z M206.35,104.55c-1.45,0-2.67,1.97-2.67,4.31c0,2.34,1.22,4.31,2.67,4.31 c1.45,0,2.67-1.97,2.67-4.31C209.02,106.52,207.79,104.55,206.35,104.55z"></path></g><polygon fill="#EA9E7E" points="204.32,95.88 208.36,95.52 208.23,99.83 				"></polygon></g><g><path fill="#FACFB4" d="M136.08,76.72l-1.02,14.82c0,0-4.71,0.4-5.79,0.95c1.27,3.98,4.34,7.56,13.94,6.84 c9.59-0.72,8.51-6.52,8.51-6.52l2.28-2.54V71.8L136.08,76.72z"></path><path fill="#FACFB4" d="M154.35,71.36c0,0-11,12.22-20.36,9.23c-9.37-2.99-7.73-11.81-6.24-14.8c1.38-2.76,2.91-4.31,3.67-6.65 c0.95-2.95,4.88-15.5,21.59-12.22C168.19,49.91,158.55,67.56,154.35,71.36z"></path><g><path fill="#FACFB4" d="M146.2,78.05c-3.67,2.23-9.19,3.78-13.31,2.47c-9.37-2.99-6.65-11.74-5.16-14.72 c1.38-2.76,2.91-4.31,3.67-6.65c0.95-2.95,4.88-15.5,21.59-12.22L146.2,78.05z"></path><path display="none" fill="#284180" d="M136.25,81.58c-1.23,0-2.42-0.16-3.53-0.51c-3.2-1.02-5.35-2.79-6.4-5.26 c-1.84-4.36,0.42-9.32,0.9-10.27c0.59-1.19,1.22-2.17,1.78-3.04c0.77-1.2,1.44-2.25,1.85-3.53l0.02-0.05 c4.23-13.16,14.42-14.09,22.23-12.56l-0.22,1.14c-7.35-1.44-16.94-0.57-20.91,11.78l-0.02,0.05c-0.46,1.43-1.2,2.58-1.98,3.8 c-0.57,0.89-1.15,1.8-1.72,2.93c-1.2,2.4-2.14,6.28-0.87,9.3c0.91,2.15,2.82,3.7,5.68,4.61c4.01,1.28,9.34-0.29,12.83-2.41 l0.6,0.99C143.73,80.23,139.85,81.58,136.25,81.58z"></path></g><g><path d="M144.57,46.65c-6.09-0.35-10.67,5.77-12.02,8.91C135.73,53.77,139.86,52.64,144.57,46.65z"></path></g><g><path d="M176.33,106.42c-8.32-9.74-12-19.05-12.28-31.85c-0.29-13.36-0.21-23.94-7.05-26.97c-8.13-3.61-13.21-1.16-13.21-1.16 s-0.9,3.41,2.15,7.13c2.44,2.99,6.51,7.88,5.97,23.21c-1.61,46.41,17.87,43.52,36.25,43.52 C184.85,114.29,180.88,111.75,176.33,106.42z"></path></g><path fill="#FFFFFF" d="M148.37,46.18c0,0,9.37,2.99,8.76,19.89c2.99,0.34,3.33,0.14,3.33,0.14s1.29-15.61-8.21-19.68 C149.46,45.91,148.37,46.18,148.37,46.18z"></path><g><ellipse transform="matrix(0.1239 -0.9923 0.9923 0.1239 69.0437 218.0012)" fill="#CACCCE" cx="157.98" cy="69.9" rx="6.21" ry="4.65"></ellipse><path fill="#FFFFFF" d="M157.65,76.67c-0.17,0-0.34-0.01-0.51-0.03c-2.86-0.36-4.81-3.67-4.35-7.38 c0.44-3.49,2.81-6.12,5.52-6.12c0.17,0,0.34,0.01,0.51,0.03c2.86,0.36,4.81,3.67,4.35,7.38 C162.73,74.04,160.36,76.67,157.65,76.67z M158.31,64.29c-2.09,0-4.01,2.24-4.37,5.11c-0.38,3.08,1.11,5.82,3.34,6.09 c0.12,0.02,0.24,0.02,0.37,0.02c2.09,0,4.01-2.24,4.37-5.11c0.38-3.08-1.11-5.82-3.34-6.09 C158.55,64.3,158.43,64.29,158.31,64.29z"></path></g><g><path d="M164.29,118.62c-4.19-1.24-7.87-4.7-10.09-9.5c-2.11-4.47-2.89-9.4-3.37-13.64c-0.43-4.24-0.2-13.23,0.15-17.8 c1.14-14.67-2.66-19.67-5.44-23.32c-1.63-2.14-2.92-3.83-2.52-6.65l1.15,0.16c-0.33,2.34,0.77,3.78,2.29,5.78 c2.73,3.58,6.85,8.99,5.68,24.11c-0.35,4.53-0.58,13.42-0.15,17.59c0.47,4.14,1.23,8.96,3.27,13.27 c2.08,4.5,5.5,7.73,9.37,8.88L164.29,118.62z"></path></g><path fill="#EA9E7E" d="M135.77,80.98l-0.17,2.83c0,0,7.14-1.44,10.23-5.2C139.56,80.92,135.77,80.98,135.77,80.98z"></path><g><path fill="#4678B0" d="M122.23,71.74c2.67,2.06,6.78,3.83,7.96,4.31l0.44-1.07c-4.17-1.72-10.1-5.04-9.61-6.7 c0.01-0.02,0.02-0.08,0.15-0.15c0.82-0.44,3.31,0.05,4.68,0.47l0.33-1.11c-0.67-0.2-4.09-1.17-5.57-0.38 c-0.36,0.19-0.6,0.48-0.71,0.84C119.56,69.18,120.64,70.51,122.23,71.74z"></path></g><path fill="#4678B0" d="M130.21,75.09c-0.31,0.63,0.21,1.54,1.18,2.01c0.97,0.48,2,0.35,2.32-0.28 c0.31-0.63-0.21-1.54-1.18-2.01C131.57,74.33,130.53,74.46,130.21,75.09z"></path></g></g><g><g><path fill="#FFFFFF" d="M177.86,167.06h-77.08v-2.44c0-1.21,0.98-2.18,2.18-2.18h72.72c1.21,0,2.18,0.98,2.18,2.18V167.06z"></path><path fill="#4678B0" d="M178.44,167.64H100.2v-3.02c0-1.52,1.24-2.76,2.76-2.76h72.72c1.52,0,2.76,1.24,2.76,2.76V167.64z M101.36,166.49h75.93v-1.86c0-0.88-0.72-1.6-1.6-1.6h-72.72c-0.88,0-1.6,0.72-1.6,1.6V166.49z"></path></g><g><g><path fill="#FFFFFF" d="M174.14,162.43h-69.57c-2.08,0-3.76-1.61-3.76-3.6v-43.88c0-1.99,1.68-3.6,3.76-3.6h69.57 c2.08,0,3.76,1.61,3.76,3.6v43.88C177.9,160.82,176.22,162.43,174.14,162.43z"></path><g><path fill="#4678B0" d="M124.58,129.83H111.5v-6.95h13.08V129.83z M112.66,128.67h10.77v-4.64h-10.77V128.67z"></path></g><path fill="#4678B0" d="M174.14,163.01h-69.57c-2.39,0-4.34-1.87-4.34-4.17v-43.88c0-2.3,1.95-4.17,4.34-4.17h69.57 c2.39,0,4.34,1.87,4.34,4.17v43.88C178.48,161.13,176.53,163.01,174.14,163.01z M104.58,111.94c-1.75,0-3.18,1.35-3.18,3.02 v43.88c0,1.66,1.43,3.02,3.18,3.02h69.57c1.75,0,3.18-1.35,3.18-3.02v-43.88c0-1.66-1.43-3.02-3.18-3.02H104.58z"></path></g><circle fill="#4678B0" cx="139.36" cy="136.89" r="3.93"></circle></g></g><g><rect x="34.62" y="167.06" fill="#4678B0" width="214.44" height="1.16"></rect></g><g><g><g><g><path fill="#653E5D" d="M218.09,109.94l-1.08-0.41c0.14-0.37,0.28-0.74,0.41-1.11l1.09,0.4 C218.37,109.19,218.24,109.57,218.09,109.94z"></path></g><g><path fill="#653E5D" d="M218.75,106.96c-0.06,0-0.12-0.01-0.19-0.03c-0.3-0.1-0.46-0.43-0.36-0.73 c0.25-0.72,0.48-1.45,0.71-2.18c0.1-0.3,0.42-0.47,0.73-0.38c0.3,0.1,0.47,0.42,0.38,0.73c-0.23,0.74-0.47,1.47-0.72,2.2 C219.22,106.81,219,106.96,218.75,106.96z M220.14,102.57c-0.05,0-0.11-0.01-0.16-0.02c-0.31-0.09-0.48-0.41-0.39-0.72 c0.21-0.73,0.42-1.47,0.62-2.21c0.08-0.31,0.4-0.49,0.71-0.41c0.31,0.08,0.49,0.4,0.41,0.71c-0.2,0.75-0.41,1.49-0.63,2.23 C220.63,102.41,220.39,102.57,220.14,102.57z M221.35,98.12c-0.05,0-0.09-0.01-0.14-0.02c-0.31-0.08-0.5-0.39-0.42-0.7 c0.18-0.74,0.36-1.49,0.53-2.23c0.07-0.31,0.38-0.51,0.69-0.44c0.31,0.07,0.51,0.38,0.44,0.69c-0.17,0.75-0.35,1.5-0.53,2.25 C221.84,97.95,221.61,98.12,221.35,98.12z M222.36,93.63c-0.04,0-0.08,0-0.12-0.01c-0.31-0.06-0.51-0.37-0.45-0.68 c0.15-0.75,0.3-1.5,0.44-2.25c0.06-0.31,0.36-0.52,0.67-0.46c0.31,0.06,0.52,0.36,0.46,0.67c-0.14,0.76-0.29,1.52-0.44,2.27 C222.87,93.44,222.63,93.63,222.36,93.63z M223.2,89.09c-0.03,0-0.06,0-0.09-0.01c-0.32-0.05-0.53-0.35-0.48-0.66 c0.12-0.75,0.24-1.51,0.35-2.27c0.05-0.32,0.34-0.53,0.65-0.49c0.32,0.05,0.54,0.34,0.49,0.65c-0.11,0.76-0.23,1.53-0.35,2.29 C223.72,88.89,223.48,89.09,223.2,89.09z M223.85,84.53c-0.02,0-0.05,0-0.07,0c-0.32-0.04-0.54-0.33-0.5-0.64 c0.09-0.76,0.18-1.52,0.26-2.28c0.03-0.32,0.32-0.55,0.63-0.52c0.32,0.03,0.55,0.32,0.52,0.63c-0.08,0.77-0.16,1.53-0.26,2.3 C224.39,84.32,224.14,84.53,223.85,84.53z M224.32,79.95c-0.02,0-0.03,0-0.05,0c-0.32-0.03-0.56-0.31-0.53-0.62 c0.06-0.76,0.12-1.53,0.16-2.29c0.02-0.32,0.3-0.56,0.61-0.54c0.32,0.02,0.56,0.29,0.54,0.61c-0.05,0.77-0.1,1.54-0.16,2.31 C224.87,79.72,224.62,79.95,224.32,79.95z M224.6,75.35c-0.01,0-0.02,0-0.02,0c-0.32-0.01-0.57-0.28-0.55-0.6 c0.03-0.77,0.05-1.53,0.07-2.29c0.01-0.32,0.28-0.58,0.59-0.57c0.32,0.01,0.57,0.27,0.57,0.59c-0.02,0.77-0.04,1.54-0.07,2.32 C225.16,75.1,224.91,75.35,224.6,75.35z M224.69,70.74c-0.32,0-0.58-0.26-0.58-0.58c0-0.77-0.01-1.53-0.03-2.29 c-0.01-0.32,0.25-0.58,0.57-0.59c0,0,0.01,0,0.01,0c0.31,0,0.57,0.25,0.58,0.57c0.02,0.77,0.03,1.54,0.03,2.32 C225.27,70.48,225.01,70.74,224.69,70.74L224.69,70.74z M224.58,66.13c-0.31,0-0.56-0.24-0.58-0.55 c-0.03-0.77-0.08-1.53-0.13-2.29c-0.02-0.32,0.22-0.59,0.54-0.62c0.32-0.02,0.59,0.22,0.62,0.54 c0.05,0.76,0.09,1.54,0.13,2.31c0.01,0.32-0.23,0.59-0.55,0.6C224.6,66.13,224.59,66.13,224.58,66.13z M224.27,61.53 c-0.3,0-0.55-0.23-0.58-0.53c-0.07-0.76-0.15-1.53-0.23-2.28c-0.04-0.32,0.19-0.6,0.51-0.64c0.32-0.04,0.6,0.19,0.64,0.51 c0.09,0.76,0.17,1.54,0.24,2.31c0.03,0.32-0.21,0.6-0.52,0.63C224.31,61.53,224.29,61.53,224.27,61.53z M223.75,56.95 c-0.28,0-0.53-0.21-0.57-0.5c-0.1-0.76-0.22-1.52-0.34-2.26c-0.05-0.32,0.16-0.61,0.48-0.66c0.31-0.05,0.61,0.16,0.66,0.48 c0.12,0.76,0.24,1.53,0.35,2.29c0.04,0.32-0.18,0.61-0.49,0.65C223.81,56.95,223.78,56.95,223.75,56.95z M223,52.41 c-0.27,0-0.51-0.19-0.57-0.47c-0.14-0.76-0.3-1.51-0.46-2.24c-0.07-0.31,0.13-0.62,0.44-0.69c0.31-0.07,0.62,0.13,0.69,0.44 c0.16,0.74,0.32,1.51,0.47,2.27c0.06,0.31-0.15,0.62-0.46,0.68C223.08,52.4,223.04,52.41,223,52.41z M99.54,50.13 c-0.46,0-0.94-0.01-1.41-0.03c-0.32-0.01-0.57-0.28-0.56-0.6c0.01-0.32,0.28-0.57,0.6-0.55c0.77,0.03,1.51,0.04,2.27,0.02 c0.31-0.03,0.59,0.24,0.59,0.56c0.01,0.32-0.24,0.59-0.56,0.59C100.16,50.12,99.85,50.13,99.54,50.13z M102.75,49.97 c-0.29,0-0.54-0.22-0.57-0.52c-0.03-0.32,0.2-0.6,0.52-0.63c0.75-0.08,1.51-0.18,2.24-0.31c0.31-0.05,0.62,0.15,0.67,0.47 c0.06,0.31-0.15,0.62-0.47,0.67c-0.76,0.14-1.54,0.25-2.33,0.32C102.79,49.97,102.77,49.97,102.75,49.97z M95.85,49.93 c-0.02,0-0.04,0-0.06,0c-0.76-0.08-1.54-0.18-2.32-0.31c-0.32-0.05-0.53-0.35-0.48-0.66c0.05-0.32,0.35-0.53,0.66-0.48 c0.75,0.12,1.51,0.22,2.25,0.3c0.32,0.03,0.55,0.32,0.52,0.64C96.4,49.71,96.14,49.93,95.85,49.93z M91.3,49.2 c-0.04,0-0.08,0-0.12-0.01c-0.75-0.16-1.51-0.35-2.27-0.56c-0.31-0.08-0.49-0.4-0.41-0.71c0.08-0.31,0.4-0.49,0.71-0.41 c0.74,0.2,1.48,0.38,2.21,0.54c0.31,0.07,0.51,0.38,0.44,0.69C91.81,49.01,91.57,49.2,91.3,49.2z M107.29,49.15 c-0.26,0-0.49-0.17-0.56-0.43c-0.08-0.31,0.1-0.63,0.41-0.71c0.73-0.19,1.45-0.42,2.15-0.67c0.3-0.11,0.63,0.05,0.74,0.35 c0.11,0.3-0.05,0.63-0.35,0.74c-0.73,0.26-1.49,0.5-2.25,0.7C107.38,49.15,107.33,49.15,107.29,49.15z M86.86,47.99 c-0.06,0-0.12-0.01-0.18-0.03c-0.73-0.24-1.47-0.5-2.2-0.77c-0.3-0.11-0.45-0.45-0.34-0.75c0.11-0.3,0.45-0.45,0.75-0.34 c0.71,0.27,1.43,0.52,2.15,0.76c0.3,0.1,0.47,0.43,0.37,0.73C87.33,47.83,87.1,47.99,86.86,47.99z M222.01,47.91 c-0.26,0-0.5-0.18-0.56-0.44c-0.18-0.74-0.38-1.48-0.59-2.21c-0.09-0.31,0.09-0.63,0.4-0.71c0.31-0.09,0.63,0.09,0.71,0.4 c0.21,0.74,0.41,1.5,0.6,2.24c0.08,0.31-0.11,0.62-0.42,0.7C222.11,47.9,222.06,47.91,222.01,47.91z M111.62,47.59 c-0.22,0-0.43-0.12-0.53-0.34c-0.13-0.29-0.01-0.63,0.28-0.77c0.68-0.31,1.35-0.66,2-1.03c0.28-0.16,0.63-0.06,0.79,0.21 c0.16,0.28,0.06,0.63-0.21,0.79c-0.68,0.39-1.38,0.75-2.09,1.08C111.78,47.58,111.7,47.59,111.62,47.59z M82.55,46.35 c-0.08,0-0.16-0.02-0.23-0.05c-0.21-0.09-0.41-0.18-0.6-0.27c-0.29-0.13-0.42-0.47-0.29-0.77c0.13-0.29,0.47-0.42,0.77-0.29 c0.19,0.08,0.38,0.17,0.59,0.26c0.29,0.13,0.43,0.47,0.3,0.76C82.98,46.22,82.77,46.35,82.55,46.35z M115.61,45.3 c-0.18,0-0.36-0.08-0.47-0.24c-0.19-0.26-0.12-0.62,0.14-0.81c0.62-0.44,1.2-0.91,1.75-1.39c0.24-0.21,0.6-0.19,0.82,0.05 c0.21,0.24,0.19,0.6-0.05,0.82c-0.58,0.51-1.2,1.01-1.85,1.47C115.84,45.27,115.72,45.3,115.61,45.3z M220.76,43.47 c-0.25,0-0.47-0.16-0.55-0.4c-0.23-0.73-0.48-1.46-0.72-2.17c-0.11-0.3,0.05-0.63,0.35-0.74c0.3-0.11,0.63,0.05,0.74,0.35 c0.25,0.72,0.5,1.46,0.74,2.2c0.1,0.3-0.07,0.63-0.38,0.73C220.88,43.46,220.82,43.47,220.76,43.47z M119.02,42.24 c-0.14,0-0.27-0.05-0.38-0.15c-0.24-0.21-0.26-0.58-0.05-0.82c0.49-0.55,0.95-1.14,1.37-1.76c0.18-0.26,0.54-0.33,0.8-0.15 c0.26,0.18,0.33,0.54,0.15,0.8c-0.45,0.65-0.94,1.28-1.46,1.87C119.34,42.18,119.18,42.24,119.02,42.24z M161.37,39.14 c-0.73,0-1.45-0.15-2.13-0.44c-0.29-0.13-0.43-0.47-0.3-0.76c0.13-0.29,0.47-0.43,0.76-0.3c0.54,0.23,1.1,0.35,1.67,0.35 c0.11,0,0.2,0,0.3-0.01c0.31-0.03,0.6,0.22,0.62,0.54c0.02,0.32-0.22,0.6-0.54,0.62C161.63,39.14,161.5,39.14,161.37,39.14 C161.37,39.14,161.37,39.14,161.37,39.14z M219.23,39.13c-0.23,0-0.45-0.14-0.54-0.37c-0.28-0.71-0.57-1.42-0.87-2.11 c-0.13-0.29,0.01-0.63,0.3-0.76c0.29-0.13,0.63,0.01,0.76,0.3c0.31,0.7,0.61,1.42,0.89,2.15c0.12,0.3-0.03,0.63-0.33,0.75 C219.37,39.11,219.3,39.13,219.23,39.13z M121.63,38.47c-0.09,0-0.18-0.02-0.27-0.07c-0.28-0.15-0.39-0.5-0.24-0.78 c0.34-0.64,0.66-1.32,0.95-2.03c0.12-0.3,0.46-0.44,0.76-0.31c0.3,0.12,0.44,0.46,0.31,0.76c-0.31,0.75-0.65,1.46-1,2.13 C122.04,38.36,121.84,38.47,121.63,38.47z M163.88,38.42c-0.19,0-0.38-0.1-0.49-0.27c-0.17-0.27-0.09-0.63,0.18-0.8 c0.56-0.36,1.04-0.84,1.42-1.45c0.17-0.27,0.53-0.35,0.8-0.18c0.27,0.17,0.35,0.53,0.18,0.8c-0.47,0.75-1.07,1.36-1.78,1.81 C164.1,38.39,163.99,38.42,163.88,38.42z M157.62,37.4c-0.16,0-0.32-0.07-0.43-0.19c-0.54-0.6-0.97-1.32-1.29-2.13 c-0.12-0.3,0.03-0.63,0.33-0.75c0.3-0.12,0.63,0.03,0.75,0.33c0.27,0.69,0.63,1.29,1.08,1.79c0.21,0.24,0.19,0.6-0.05,0.82 C157.9,37.35,157.76,37.4,157.62,37.4z M217.38,34.9c-0.21,0-0.42-0.12-0.52-0.33c-0.33-0.69-0.68-1.37-1.04-2.03 c-0.15-0.28-0.05-0.63,0.23-0.78c0.28-0.15,0.63-0.05,0.78,0.23c0.36,0.67,0.72,1.37,1.06,2.07c0.14,0.29,0.02,0.63-0.27,0.77 C217.56,34.89,217.47,34.9,217.38,34.9z M166.32,34.66c-0.04,0-0.08,0-0.12-0.01c-0.31-0.07-0.51-0.37-0.44-0.69 c0.12-0.56,0.18-1.16,0.18-1.8c0-0.12,0-0.23-0.01-0.35c-0.01-0.32,0.24-0.59,0.56-0.6c0.32-0.02,0.59,0.24,0.6,0.56 c0,0.13,0.01,0.26,0.01,0.39c0,0.72-0.07,1.4-0.21,2.04C166.83,34.47,166.59,34.66,166.32,34.66z M123.4,34.22 c-0.06,0-0.12-0.01-0.18-0.03c-0.3-0.1-0.47-0.43-0.37-0.73c0.22-0.68,0.43-1.39,0.64-2.18c0.08-0.31,0.4-0.49,0.71-0.41 c0.31,0.08,0.49,0.4,0.41,0.71c-0.22,0.81-0.43,1.54-0.66,2.24C123.87,34.07,123.65,34.22,123.4,34.22z M155.9,33.21 c-0.29,0-0.54-0.22-0.57-0.51c-0.01-0.09-0.02-0.17-0.03-0.26c-0.02-0.28-0.04-0.57-0.04-0.85c0-0.43,0.03-0.88,0.09-1.32 c0.04-0.32,0.33-0.54,0.65-0.5c0.32,0.04,0.54,0.33,0.5,0.65c-0.05,0.39-0.08,0.79-0.08,1.18c0,0.25,0.01,0.5,0.03,0.75 c0.01,0.08,0.01,0.16,0.02,0.24c0.04,0.32-0.19,0.6-0.51,0.64C155.95,33.21,155.92,33.21,155.9,33.21z M215.2,30.85 c-0.2,0-0.39-0.1-0.5-0.28c-0.39-0.66-0.8-1.31-1.22-1.92c-0.18-0.27-0.11-0.62,0.16-0.8c0.27-0.18,0.62-0.11,0.8,0.16 c0.42,0.63,0.84,1.3,1.25,1.97c0.16,0.27,0.08,0.63-0.2,0.79C215.4,30.82,215.3,30.85,215.2,30.85z M166.29,30.07 c-0.29,0-0.54-0.21-0.57-0.51c-0.09-0.76-0.2-1.52-0.32-2.26c-0.05-0.32,0.16-0.61,0.48-0.66c0.32-0.06,0.61,0.16,0.66,0.48 c0.12,0.75,0.23,1.53,0.33,2.3c0.04,0.32-0.19,0.61-0.5,0.64C166.34,30.07,166.31,30.07,166.29,30.07z M124.61,29.78 c-0.04,0-0.09,0-0.13-0.01c-0.31-0.07-0.51-0.38-0.43-0.69c0.17-0.75,0.34-1.49,0.5-2.24c0.07-0.31,0.38-0.51,0.69-0.44 c0.31,0.07,0.51,0.38,0.44,0.69c-0.16,0.75-0.33,1.51-0.5,2.26C125.11,29.6,124.87,29.78,124.61,29.78z M156.45,28.67 c-0.06,0-0.13-0.01-0.19-0.03c-0.3-0.1-0.46-0.43-0.36-0.73c0.25-0.73,0.57-1.47,0.96-2.19c0.15-0.28,0.5-0.39,0.78-0.24 c0.28,0.15,0.39,0.5,0.24,0.78c-0.36,0.67-0.66,1.35-0.89,2.02C156.92,28.52,156.69,28.67,156.45,28.67z M212.64,27.02 c-0.18,0-0.35-0.08-0.46-0.23c-0.46-0.61-0.93-1.21-1.41-1.78c-0.21-0.24-0.17-0.61,0.07-0.82c0.24-0.2,0.61-0.17,0.82,0.07 c0.49,0.59,0.98,1.2,1.45,1.83c0.19,0.26,0.14,0.62-0.12,0.81C212.88,26.98,212.76,27.02,212.64,27.02z M165.55,25.53 c-0.27,0-0.51-0.19-0.57-0.46c-0.16-0.75-0.33-1.5-0.52-2.22c-0.08-0.31,0.1-0.62,0.41-0.71c0.31-0.08,0.63,0.11,0.71,0.41 c0.19,0.74,0.37,1.5,0.53,2.27c0.07,0.31-0.14,0.62-0.45,0.68C165.62,25.52,165.58,25.53,165.55,25.53z M125.6,25.28 c-0.04,0-0.09,0-0.13-0.01c-0.31-0.07-0.51-0.38-0.44-0.69c0.2-0.86,0.37-1.58,0.54-2.26c0.08-0.31,0.4-0.49,0.7-0.42 c0.31,0.08,0.5,0.4,0.42,0.71c-0.17,0.66-0.34,1.37-0.54,2.22C126.11,25.09,125.87,25.28,125.6,25.28z M158.6,24.62 c-0.12,0-0.24-0.04-0.34-0.11c-0.26-0.19-0.32-0.55-0.13-0.81c0.45-0.62,0.95-1.24,1.49-1.84c0.21-0.24,0.58-0.26,0.82-0.04 c0.24,0.21,0.26,0.58,0.04,0.82c-0.51,0.57-0.99,1.15-1.41,1.74C158.96,24.53,158.78,24.62,158.6,24.62z M209.68,23.49 c-0.15,0-0.31-0.06-0.42-0.18c-0.52-0.55-1.06-1.09-1.61-1.59c-0.23-0.22-0.25-0.58-0.03-0.82c0.22-0.23,0.58-0.25,0.82-0.03 c0.57,0.52,1.12,1.08,1.66,1.65c0.22,0.23,0.21,0.6-0.02,0.82C209.96,23.44,209.82,23.49,209.68,23.49z M161.68,21.19 c-0.16,0-0.31-0.06-0.43-0.19c-0.22-0.24-0.2-0.6,0.04-0.82c0.57-0.52,1.17-1.03,1.8-1.51c0.01-0.01,0.02-0.02,0.03-0.02 c-0.02-0.04-0.03-0.08-0.05-0.12c-0.12-0.3,0.03-0.63,0.33-0.75c0.3-0.12,0.63,0.03,0.75,0.33c0.28,0.71,0.54,1.45,0.78,2.2 c0.1,0.3-0.07,0.63-0.37,0.73c-0.3,0.1-0.63-0.07-0.73-0.37c-0.09-0.3-0.19-0.59-0.29-0.88c-0.51,0.4-1,0.82-1.47,1.25 C161.96,21.14,161.82,21.19,161.68,21.19z M126.77,20.82c-0.06,0-0.12-0.01-0.17-0.03c-0.3-0.1-0.47-0.42-0.38-0.73 c0.25-0.79,0.5-1.51,0.78-2.21c0.12-0.3,0.45-0.44,0.75-0.33c0.3,0.12,0.44,0.45,0.33,0.75c-0.27,0.67-0.51,1.37-0.75,2.13 C127.25,20.66,127.02,20.82,126.77,20.82z M206.3,20.37c-0.13,0-0.26-0.04-0.36-0.13c-0.59-0.47-1.2-0.93-1.81-1.35 c-0.26-0.18-0.33-0.54-0.15-0.8c0.18-0.26,0.54-0.33,0.8-0.15c0.64,0.44,1.27,0.91,1.88,1.41c0.25,0.2,0.29,0.56,0.09,0.81 C206.63,20.3,206.47,20.37,206.3,20.37z M165.32,18.38c-0.19,0-0.37-0.09-0.48-0.26c-0.18-0.27-0.1-0.63,0.17-0.8 c0.64-0.42,1.32-0.83,2.01-1.22c0.28-0.16,0.63-0.06,0.79,0.22c0.16,0.28,0.06,0.63-0.22,0.79c-0.66,0.37-1.31,0.76-1.94,1.17 C165.54,18.34,165.43,18.38,165.32,18.38z M202.51,17.75c-0.1,0-0.2-0.03-0.29-0.08c-0.65-0.38-1.32-0.75-1.99-1.09 c-0.28-0.15-0.4-0.49-0.25-0.78c0.14-0.28,0.49-0.4,0.78-0.25c0.69,0.35,1.38,0.73,2.05,1.12c0.28,0.16,0.37,0.52,0.21,0.79 C202.9,17.65,202.71,17.75,202.51,17.75z M162.7,16.79c-0.22,0-0.42-0.12-0.52-0.33c-0.33-0.69-0.68-1.36-1.04-2 c-0.16-0.28-0.06-0.63,0.21-0.79c0.28-0.16,0.63-0.06,0.79,0.21c0.38,0.66,0.75,1.36,1.09,2.08c0.14,0.29,0.01,0.63-0.28,0.77 C162.87,16.77,162.79,16.79,162.7,16.79z M128.48,16.55c-0.09,0-0.18-0.02-0.26-0.06c-0.29-0.14-0.4-0.49-0.26-0.78 c0.36-0.71,0.76-1.4,1.17-2.05c0.17-0.27,0.53-0.34,0.8-0.17c0.27,0.17,0.34,0.53,0.17,0.8c-0.4,0.61-0.77,1.26-1.11,1.94 C128.89,16.43,128.69,16.55,128.48,16.55z M169.34,16.13c-0.22,0-0.42-0.12-0.52-0.33c-0.14-0.29-0.01-0.63,0.28-0.77 c0.7-0.33,1.42-0.64,2.15-0.93c0.3-0.12,0.63,0.03,0.75,0.33c0.12,0.3-0.03,0.63-0.33,0.75c-0.71,0.28-1.41,0.58-2.08,0.9 C169.51,16.11,169.42,16.13,169.34,16.13z M198.4,15.67c-0.08,0-0.15-0.02-0.23-0.05c-0.69-0.3-1.4-0.58-2.11-0.83 c-0.3-0.11-0.46-0.44-0.35-0.74c0.11-0.3,0.44-0.46,0.74-0.35c0.73,0.26,1.47,0.55,2.18,0.86c0.29,0.13,0.43,0.47,0.3,0.76 C198.84,15.54,198.63,15.67,198.4,15.67z M173.63,14.45c-0.25,0-0.47-0.16-0.55-0.4c-0.1-0.3,0.07-0.63,0.38-0.73 c0.74-0.24,1.5-0.45,2.25-0.64c0.31-0.08,0.62,0.11,0.7,0.42c0.08,0.31-0.11,0.62-0.42,0.7c-0.73,0.18-1.46,0.39-2.18,0.62 C173.74,14.44,173.69,14.45,173.63,14.45z M194.07,14.12c-0.05,0-0.11-0.01-0.16-0.02c-0.73-0.21-1.47-0.39-2.2-0.55 c-0.31-0.07-0.51-0.38-0.44-0.69c0.07-0.31,0.38-0.51,0.69-0.44c0.76,0.16,1.52,0.36,2.27,0.57c0.31,0.09,0.48,0.41,0.4,0.72 C194.55,13.95,194.32,14.12,194.07,14.12z M178.1,13.34c-0.27,0-0.52-0.2-0.57-0.48c-0.06-0.31,0.15-0.62,0.47-0.67 c0.77-0.14,1.55-0.26,2.32-0.34c0.32-0.04,0.6,0.19,0.64,0.51c0.04,0.32-0.19,0.6-0.51,0.64c-0.75,0.09-1.5,0.2-2.24,0.33 C178.17,13.33,178.13,13.34,178.1,13.34z M189.57,13.14c-0.03,0-0.06,0-0.09-0.01c-0.74-0.11-1.5-0.2-2.25-0.26 c-0.32-0.03-0.56-0.31-0.53-0.62c0.03-0.32,0.3-0.55,0.62-0.53c0.78,0.06,1.56,0.15,2.33,0.27c0.32,0.05,0.53,0.34,0.49,0.66 C190.1,12.93,189.85,13.14,189.57,13.14z M182.67,12.81c-0.31,0-0.56-0.24-0.58-0.55c-0.02-0.32,0.23-0.59,0.55-0.61 c0.78-0.04,1.56-0.05,2.34-0.04c0.32,0,0.57,0.27,0.57,0.59c0,0.32-0.26,0.56-0.59,0.57c-0.75-0.01-1.51,0-2.27,0.04 C182.69,12.81,182.68,12.81,182.67,12.81z M160.4,12.8c-0.18,0-0.36-0.09-0.47-0.25c-0.44-0.62-0.9-1.22-1.38-1.77 c-0.21-0.24-0.18-0.61,0.06-0.82c0.24-0.21,0.61-0.18,0.82,0.06c0.5,0.58,0.99,1.21,1.45,1.86c0.18,0.26,0.12,0.62-0.14,0.81 C160.63,12.77,160.52,12.8,160.4,12.8z M130.98,12.7c-0.13,0-0.26-0.04-0.37-0.13c-0.25-0.2-0.28-0.57-0.08-0.81 c0.17-0.2,0.34-0.4,0.51-0.59c0.35-0.39,0.72-0.78,1.09-1.14c0.23-0.22,0.59-0.22,0.82,0.01c0.22,0.23,0.22,0.59-0.01,0.82 c-0.35,0.35-0.7,0.71-1.04,1.09c-0.17,0.18-0.33,0.37-0.48,0.56C131.31,12.63,131.15,12.7,130.98,12.7z M134.26,9.47 c-0.17,0-0.34-0.07-0.45-0.21c-0.2-0.25-0.16-0.61,0.09-0.81c0.62-0.5,1.26-0.97,1.91-1.39c0.27-0.17,0.63-0.1,0.8,0.17 c0.17,0.27,0.1,0.63-0.17,0.8c-0.62,0.4-1.23,0.85-1.81,1.32C134.51,9.43,134.39,9.47,134.26,9.47z M157.38,9.34 c-0.14,0-0.28-0.05-0.39-0.15c-0.55-0.51-1.14-0.98-1.73-1.4c-0.26-0.18-0.32-0.55-0.14-0.81c0.18-0.26,0.55-0.32,0.81-0.14 c0.64,0.45,1.26,0.95,1.85,1.49c0.24,0.22,0.25,0.58,0.04,0.82C157.69,9.28,157.54,9.34,157.38,9.34z M138.11,6.96 c-0.21,0-0.41-0.12-0.52-0.32c-0.14-0.28-0.03-0.63,0.25-0.78c0.71-0.36,1.44-0.68,2.17-0.95c0.3-0.11,0.63,0.04,0.74,0.34 c0.11,0.3-0.04,0.63-0.34,0.74c-0.69,0.25-1.38,0.56-2.05,0.89C138.29,6.94,138.2,6.96,138.11,6.96z M153.62,6.7 c-0.09,0-0.18-0.02-0.27-0.06c-0.66-0.34-1.34-0.64-2.04-0.87c-0.3-0.1-0.46-0.43-0.36-0.74c0.1-0.3,0.43-0.46,0.74-0.36 c0.75,0.26,1.48,0.57,2.19,0.94c0.28,0.15,0.39,0.5,0.25,0.78C154.04,6.58,153.83,6.7,153.62,6.7z M142.43,5.38 c-0.26,0-0.5-0.18-0.56-0.45c-0.07-0.31,0.12-0.62,0.43-0.69c0.78-0.18,1.57-0.31,2.35-0.39c0.32-0.03,0.6,0.2,0.63,0.52 c0.03,0.32-0.2,0.6-0.52,0.63c-0.73,0.07-1.47,0.19-2.2,0.36C142.51,5.37,142.47,5.38,142.43,5.38z M149.29,5.2 c-0.04,0-0.07,0-0.11-0.01c-0.72-0.14-1.46-0.22-2.2-0.25c-0.32-0.01-0.57-0.28-0.55-0.6c0.01-0.32,0.29-0.57,0.6-0.55 c0.8,0.03,1.59,0.13,2.37,0.27c0.31,0.06,0.52,0.36,0.46,0.68C149.8,5,149.56,5.2,149.29,5.2z"></path></g><g><path fill="#653E5D" d="M80.64,45.53c-0.68-0.34-1.06-0.55-1.07-0.56l0.57-1.01c0,0,0.36,0.21,1.01,0.52L80.64,45.53z"></path></g></g></g><g><g><polygon fill="#FFFFFF" points="92,42.5 89.05,52.3 88.13,46.88 63.22,38.19 					"></polygon><path fill="#4678B0" d="M88.9,54.82l-1.28-7.51l-24.58-8.57l0.28-1.12l29.43,4.4L88.9,54.82z M69.24,39.68l19.4,6.76l0.57,3.33 l2.04-6.8L69.24,39.68z"></path></g><g><polygon fill="#FFFFFF" points="89.96,46.14 84.27,56.54 62.63,38.06 					"></polygon><path fill="#4678B0" d="M84.44,57.44l-24.25-20.7l30.62,9.05L84.44,57.44z M65.08,39.39l19.03,16.24l5-9.14L65.08,39.39z"></path></g><g><polygon fill="#FFFFFF" points="90.97,45.04 94.89,39.53 63.98,37.77 					"></polygon><path fill="#4678B0" d="M91.2,45.7l-31.02-8.97l35.78,2.28L91.2,45.7z M69.53,38.66l21.2,5.71l3.08-4.33L69.53,38.66z"></path></g></g></g></g><g><g><path fill="#8ABFE5" d="M147.11,136.23l-1.67-1.51v0c0.05,0.05,0.1,0.11,0.15,0.17c0.17,0.21,0.28,0.46,0.32,0.72 c0.05,0.28,0.02,0.59-0.08,0.85l-2.73,8.43c0.29-0.12,0.57-0.31,0.77-0.63c0.89-1.42,2.57-4.16,3.57-5.76 C147.89,137.76,147.75,136.8,147.11,136.23"></path><path fill="#4678B0" d="M145.91,135.61c-0.05-0.26-0.16-0.51-0.32-0.72c-0.05-0.07-0.11-0.13-0.17-0.19l-2.58-2.32 c-0.5-0.22-1.11-0.15-1.58,0.27l-2.4,2.17l3.56,3.21c0.13,0.12,0.2,0.3,0.2,0.49V145c0.14-0.01,0.33-0.05,0.46-0.1l2.73-8.43 C145.93,136.2,145.96,135.89,145.91,135.61"></path><path fill="#3878B5" d="M138.03,129.56c0.24-0.21,0.54-0.32,0.84-0.32c0.3,0,0.6,0.11,0.84,0.32l3.14,2.82 c-0.5-0.22-1.11-0.15-1.58,0.27l-2.4,2.17l-2.4-2.17c-0.47-0.42-1.07-0.49-1.58-0.27L138.03,129.56z"></path><path fill="#E61E27" d="M135.31,138.03l3.56-3.21l3.56,3.21c0.13,0.12,0.2,0.3,0.2,0.49V145c-0.41,0.03-0.84-0.1-1.17-0.4 l-1.06-0.96c-0.44-0.39-0.98-0.59-1.53-0.59c-0.55,0-1.1,0.2-1.53,0.59l-1.06,0.96c-0.34,0.3-0.76,0.43-1.17,0.4v-6.48 C135.1,138.33,135.18,138.15,135.31,138.03"></path><path fill="#FFC768" d="M130.63,136.23l1.67-1.51v0c-0.05,0.05-0.1,0.11-0.15,0.17c-0.17,0.21-0.28,0.46-0.33,0.72 c-0.05,0.28-0.02,0.59,0.08,0.85l2.73,8.43c-0.29-0.12-0.57-0.31-0.77-0.63c-0.89-1.42-2.57-4.16-3.57-5.76 C129.85,137.76,129.99,136.8,130.63,136.23"></path><path fill="#F08D48" d="M131.83,135.61c0.06-0.35,0.24-0.67,0.49-0.91l2.58-2.32c0.5-0.22,1.11-0.15,1.58,0.27l2.4,2.17 l-3.56,3.21c-0.13,0.12-0.2,0.3-0.2,0.49V145c-0.14-0.01-0.33-0.05-0.46-0.1l-2.73-8.43 C131.81,136.2,131.78,135.89,131.83,135.61"></path></g></g></g></svg>