<svg xmlns="http://www.w3.org/2000/svg" xmlns:xlink="http://www.w3.org/1999/xlink" width="24px" height="24px" viewBox="0 0 24 24" version="1.1"><g id="Page-1" stroke="none" stroke-width="1" fill="none" fill-rule="evenodd"><g id="D1" transform="translate(-543.000000, -6022.000000)"><g id="Group-56" transform="translate(0.000000, 5391.000000)"><g id="Group-55" transform="translate(69.000000, 619.000000)"><g id="Group-39" transform="translate(462.000000, 0.000000)"><g id="Group-40-Copy-5"><g id="Group-64" transform="translate(12.000000, 12.000000)"><rect id="Rectangle" x="0" y="0" width="24" height="24"></rect><path d="M17.525,9.0000625 L14,9.0000625 L14,7.0000625 C14,5.9680625 14.084,5.3180625 15.563,5.3180625 L17.431,5.3180625 L17.431,2.1380625 C16.522,2.0440625 15.608,1.9980625 14.693,2 C11.98,2 10,3.6570625 10,6.6990625 L10,9.0000625 L7,9.0000625 L7,13.0000625 L10,12.9990625 L10,22.0000625 L14,22.0000625 L14,12.9970625 L17.066,12.9960625 L17.525,9.0000625 Z" id="Path" fill="#E71C24" fill-rule="nonzero"></path></g></g></g></g></g></g></g></svg>