<svg xmlns="http://www.w3.org/2000/svg" width="32" height="32" viewBox="0 0 32 32" fill="none"><path d="M15.6786 13.7146C15.6786 14.4571 15.0411 15.0591 14.2548 15.0591C13.4685 15.0591 12.8311 14.4571 12.8311 13.7146C12.8311 12.9721 13.4685 12.3702 14.2548 12.3702C15.0411 12.3702 15.6786 12.9721 15.6786 13.7146Z" fill="#FFC766"></path><path d="M14.5396 12.3702C14.7294 12.1013 15.223 11.5635 15.6786 11.5635M15.6786 13.7146C15.6786 14.4571 15.0411 15.0591 14.2548 15.0591C13.4685 15.0591 12.8311 14.4571 12.8311 13.7146C12.8311 12.9721 13.4685 12.3702 14.2548 12.3702C15.0411 12.3702 15.6786 12.9721 15.6786 13.7146Z" stroke="#E71C24" stroke-width="0.7" stroke-linecap="round"></path><path d="M21.9429 17.2102C21.9429 16.9132 22.1978 16.6724 22.5124 16.6724H24.7904C25.1049 16.6724 25.3599 16.9132 25.3599 17.2102V18.8235C25.3599 19.7145 24.595 20.4368 23.6514 20.4368C22.7078 20.4368 21.9429 19.7145 21.9429 18.8235V17.2102Z" fill="#E71C24"></path><path d="M24.7904 12.1014C24.7904 12.2807 24.7904 12.9081 24.2209 13.4458C23.6513 13.9836 23.4236 14.1987 23.6514 15.0591M25.9294 13.1769C25.9294 13.3562 25.9294 13.4458 25.3599 13.9836C24.7904 14.5214 24.7904 15.0591 24.7904 15.0591M23.6514 20.4368C22.7078 20.4368 21.9429 19.7145 21.9429 18.8235V17.2102C21.9429 16.9132 22.1978 16.6724 22.5124 16.6724H24.7904C25.1049 16.6724 25.3599 16.9132 25.3599 17.2102V18.8235C25.3599 19.7145 24.595 20.4368 23.6514 20.4368Z" stroke="#333333" stroke-width="0.6" stroke-linecap="round"></path><path d="M26.7143 23.2297H6.14286V28.8819H26.7143V23.2297Z" fill="#8CC0E5"></path><path d="M27.5714 20.9689H4.71429C4.0831 20.9689 3.57143 21.475 3.57143 22.0993C3.57143 22.7236 4.0831 23.2297 4.71429 23.2297H6.14286H26.7143H27.5714C28.2026 23.2297 28.7143 22.7236 28.7143 22.0993C28.7143 21.475 28.2026 20.9689 27.5714 20.9689Z" fill="#8CC0E5"></path><path d="M4.71429 23.2297H27.5714M4.71429 23.2297C4.0831 23.2297 3.57143 22.7236 3.57143 22.0993C3.57143 21.475 4.0831 20.9689 4.71429 20.9689H27.5714C28.2026 20.9689 28.7143 21.475 28.7143 22.0993C28.7143 22.7236 28.2026 23.2297 27.5714 23.2297M4.71429 23.2297H6.14286M27.5714 23.2297H26.7143M6.14286 23.2297V28.8819M6.14286 23.2297H26.7143M6.14286 28.8819V30.5775M6.14286 28.8819H26.7143M26.7143 23.2297V28.8819M26.7143 28.8819V30.5775M1 11.0776L15.4314 1.29691C16.0293 0.891667 16.8203 0.902196 17.407 1.32321L24.4286 6.3619M24.4286 6.3619L31 11.0776M24.4286 6.3619V3.58846C24.4286 2.8861 25.0042 2.31673 25.7143 2.31673C26.4244 2.31673 27 2.8861 27 3.58846V7.96889M13 17.5776V20.121M15.2857 17.5776V20.6862M10.4286 17.5776H18.4286C19.3753 17.5776 20.1429 16.8184 20.1429 15.8819V10.795C20.1429 9.85849 19.3753 9.09932 18.4286 9.09932H10.4286C9.4818 9.09932 8.71429 9.85849 8.71429 10.795V15.8819C8.71429 16.8184 9.4818 17.5776 10.4286 17.5776Z" stroke="#333333" stroke-linecap="round"></path></svg>