<svg height="65" width="65" xmlns="http://www.w3.org/2000/svg" xmlns:xlink="http://www.w3.org/1999/xlink" version="1.1" id="Layer_1" x="0px" y="0px" viewBox="0 0 75 75" xml:space="preserve"><title>modular kitchen designs</title><g><g><g><g><path fill="#636462" d="M70.05958,72.54929H4.94053c-1.26089,0-2.28674-1.02573-2.28674-2.28663V46.26149      c0-1.26089,1.02585-2.28663,2.28674-2.28663h65.11905c1.26089,0,2.28663,1.02574,2.28663,2.28663v24.00117      C72.34621,71.52355,71.32047,72.54929,70.05958,72.54929z M5.33926,69.86382h64.32147V46.66033H5.33926V69.86382z"></path></g><g><rect x="48.34034" y="45.3176" fill="#636462" width="2.68547" height="25.88896"></rect></g><g><rect x="23.9742" y="45.3176" fill="#636462" width="2.68547" height="25.88896"></rect></g><g><path fill="#636462" d="M42.57405,66.45781H32.42595c-1.30143,0-2.36028-1.05885-2.36028-2.36028V58.5181      c0-1.30143,1.05885-2.36017,2.36028-2.36017h10.14809c1.30143,0,2.36028,1.05873,2.36028,2.36017v5.57943      C44.93433,65.39896,43.87548,66.45781,42.57405,66.45781z M32.75114,63.77234h9.49771V58.8434h-9.49771V63.77234z"></path></g><g><g><path fill="#E61E27" d="M33.32603,52.75181h-0.80654c-0.74152,0-1.34274-0.60122-1.34274-1.34274s0.60121-1.34274,1.34274-1.34274       h0.80654c0.74152,0,1.34274,0.60122,1.34274,1.34274S34.06755,52.75181,33.32603,52.75181z"></path></g><g><path fill="#E61E27" d="M37.90321,52.75181h-0.80643c-0.74152,0-1.34274-0.60122-1.34274-1.34274s0.60122-1.34274,1.34274-1.34274       h0.80643c0.74152,0,1.34274,0.60122,1.34274,1.34274S38.64473,52.75181,37.90321,52.75181z"></path></g><g><path fill="#E61E27" d="M42.48051,52.75181h-0.80654c-0.74152,0-1.34274-0.60122-1.34274-1.34274s0.60122-1.34274,1.34274-1.34274       h0.80654c0.74152,0,1.34274,0.60122,1.34274,1.34274S43.22203,52.75181,42.48051,52.75181z"></path></g></g><g><path fill="#E61E27" d="M47.21626,23.59092H27.78375c-1.26089,0-2.28663-1.02574-2.28663-2.28663v-0.27646      c0-0.4796,0.14741-0.9393,0.42616-1.3294L33.11153,9.6348V2.45071h2.68547v8.04472l-7.43574,10.41002h18.2775l-7.43575-10.41002      V2.45071h2.68547V9.6348l7.18847,10.06396c0.27853,0.38977,0.42594,0.84948,0.42594,1.32908v0.27646      C49.50288,22.56519,48.47714,23.59092,47.21626,23.59092z"></path></g><g><path fill="#636462" d="M70.05958,19.1123H55.19563c-1.26089,0-2.28663-1.02574-2.28663-2.28663V9.57623      c0-1.26089,1.02574-2.28674,2.28663-2.28674h14.86395c1.26089,0,2.28663,1.02585,2.28663,2.28674v7.24944      C72.34621,18.08656,71.32047,19.1123,70.05958,19.1123z M55.59447,16.42683h14.06627V9.97497H55.59447V16.42683z"></path></g><g><path fill="#636462" d="M19.80437,19.1123H4.94053c-1.26089,0-2.28674-1.02574-2.28674-2.28663V9.57623      c0-1.26089,1.02585-2.28674,2.28674-2.28674h14.86384c1.26089,0,2.28663,1.02585,2.28663,2.28674v7.24944      C22.091,18.08656,21.06526,19.1123,19.80437,19.1123z M5.33926,16.42683h14.06627V9.97497H5.33926V16.42683z"></path></g><g><rect x="49.68307" y="53.11208" fill="#636462" width="21.3204" height="2.68547"></rect></g><g><rect x="3.99653" y="53.11208" fill="#636462" width="21.3204" height="2.68547"></rect></g></g></g></g></svg>