<svg xmlns="http://www.w3.org/2000/svg" width="48" height="48" viewBox="0 0 48 48" fill="none"><path d="M26.0676 27.1639H21.9324C19.4633 27.1639 17.35 29.1655 17.35 31.6345V39.7933H30.65V31.6345C30.65 29.1655 28.5367 27.1639 26.0676 27.1639Z" fill="#8CC0E5"></path><path d="M36.35 17.2169V10.3993H31.6V13.8639L36.35 17.2169Z" fill="#E71C24"></path><path d="M42.6684 22.3807C42.9278 22.5639 43.2866 22.502 43.4698 22.2426C43.6529 21.9831 43.591 21.6244 43.3316 21.4412L42.6684 22.3807ZM25.2891 9.40913L25.6207 8.93937L25.6206 8.93937L25.2891 9.40913ZM22.7109 9.40913L23.0425 9.87889L23.0425 9.87889L22.7109 9.40913ZM4.66841 21.4412C4.40897 21.6243 4.34711 21.9831 4.53024 22.2426C4.71338 22.502 5.07215 22.5639 5.33159 22.3807L4.66841 21.4412ZM9.47059 18.7553L9.139 18.2855L9.47059 18.7553ZM36.35 10.3993H36.925V9.82426H36.35V10.3993ZM31.6 10.3993V9.82426H31.025V10.3993H31.6ZM31.6 13.8639L31.2684 14.3337L31.6 13.8639ZM13.9412 39.2183C12.8712 39.2183 12.1266 39.2171 11.5651 39.1416C11.0201 39.0684 10.7346 38.9347 10.5319 38.732L9.7187 39.5452C10.1707 39.9972 10.7394 40.191 11.4118 40.2814C12.0678 40.3695 12.9037 40.3683 13.9412 40.3683V39.2183ZM8.89559 35.3227C8.89559 36.3602 8.89437 37.1962 8.98255 37.8521C9.07296 38.5245 9.26671 39.0932 9.7187 39.5452L10.5319 38.732C10.3292 38.5293 10.1956 38.2438 10.1223 37.6988C10.0468 37.1374 10.0456 36.3927 10.0456 35.3227H8.89559ZM37.9544 35.3227C37.9544 36.3927 37.9532 37.1374 37.8777 37.6988C37.8044 38.2438 37.6708 38.5293 37.4681 38.732L38.2813 39.5452C38.7333 39.0932 38.927 38.5245 39.0174 37.8521C39.1056 37.1962 39.1044 36.3602 39.1044 35.3227H37.9544ZM34.0588 40.3683C35.0963 40.3683 35.9322 40.3695 36.5882 40.2814C37.2606 40.191 37.8293 39.9972 38.2813 39.5452L37.4681 38.732C37.2654 38.9347 36.9799 39.0684 36.4349 39.1416C35.8734 39.2171 35.1288 39.2183 34.0588 39.2183V40.3683ZM25.6206 8.93937C24.6491 8.25354 23.3509 8.25354 22.3794 8.93937L23.0425 9.87889C23.6165 9.4737 24.3835 9.4737 24.9575 9.87889L25.6206 8.93937ZM21.9324 27.7389H26.0676V26.5889H21.9324V27.7389ZM26.0676 27.7389C28.2377 27.7389 30.075 29.5013 30.075 31.6345H31.225C31.225 28.8297 28.8357 26.5889 26.0676 26.5889V27.7389ZM21.9324 26.5889C19.1643 26.5889 16.775 28.8297 16.775 31.6345H17.925C17.925 29.5013 19.7623 27.7389 21.9324 27.7389V26.5889ZM17.35 39.2183H13.9412V40.3683H17.35V39.2183ZM16.775 31.6345V39.7933H17.925V31.6345H16.775ZM34.0588 39.2183H30.65V40.3683H34.0588V39.2183ZM30.65 39.2183H17.35V40.3683H30.65V39.2183ZM30.075 31.6345V39.7933H31.225V31.6345H30.075ZM43.3316 21.4412L38.861 18.2855L38.1978 19.225L42.6684 22.3807L43.3316 21.4412ZM39.1044 35.3227V18.7553H37.9544V35.3227H39.1044ZM22.3794 8.93937L9.139 18.2855L9.80218 19.225L23.0425 9.87889L22.3794 8.93937ZM9.139 18.2855L4.66841 21.4412L5.33159 22.3807L9.80218 19.225L9.139 18.2855ZM10.0456 35.3227V18.7553H8.89559V35.3227H10.0456ZM38.861 18.2855L36.6816 16.7471L36.0184 17.6866L38.1978 19.225L38.861 18.2855ZM36.925 17.2169V10.3993H35.775V17.2169H36.925ZM36.35 9.82426H31.6V10.9743H36.35V9.82426ZM36.6816 16.7471L31.9316 13.3942L31.2684 14.3337L36.0184 17.6866L36.6816 16.7471ZM31.9316 13.3942L25.6207 8.93937L24.9575 9.87889L31.2684 14.3337L31.9316 13.3942ZM31.025 10.3993V13.8639H32.175V10.3993H31.025Z" fill="#333333"></path><circle cx="24" cy="18.4742" r="2.375" fill="#FFC766" stroke="#333333" stroke-width="1.15"></circle><path d="M20.4714 33.335L23.1857 36.0493L27.9357 31.2993" stroke="white" stroke-width="1.5" stroke-linecap="round"></path></svg>