<svg xmlns="http://www.w3.org/2000/svg" width="34" height="34" viewBox="0 0 34 34" fill="none"><path d="M28.7616 11.1126C28.7616 10.5603 29.2093 10.1126 29.7616 10.1126H31.5762C32.1284 10.1126 32.5762 10.5603 32.5762 11.1126V23.947C32.5762 24.4993 32.1284 24.947 31.5762 24.947H30.457H24.0993H22.7682C22.2159 24.947 21.7682 24.4993 21.7682 23.947V22.5563C21.7682 22.004 22.2159 21.5563 22.7682 21.5563H27.7616C28.3139 21.5563 28.7616 21.1086 28.7616 20.5563V11.1126Z" fill="#8CC0E5"></path><path d="M1 11.1126C1 10.5603 1.44772 10.1126 2 10.1126H3.81457C4.36685 10.1126 4.81457 10.5603 4.81457 11.1126V20.5563C4.81457 21.1086 5.26228 21.5563 5.81457 21.5563H11.0199C11.5722 21.5563 12.0199 22.004 12.0199 22.5563V24.3709C12.0199 24.9231 11.5722 25.3709 11.0199 25.3709H9.2649H2.69536H2C1.44771 25.3709 1 24.9231 1 24.3709V11.1126Z" fill="#8CC0E5"></path><path d="M10.7483 3.75497V8.47682C10.7483 9.0291 11.1961 9.47682 11.7483 9.47682H19.0132L16.2583 7.56954L10.7483 3.75497Z" fill="#FFC766"></path><path d="M16.7881 18.8013V31.5762C16.7881 32.1284 16.3404 32.5762 15.7881 32.5762H13.9272H19.8609M2.69536 25.3709H2C1.44771 25.3709 1 24.9231 1 24.3709V11.1126C1 10.5603 1.44772 10.1126 2 10.1126H3.81457C4.36685 10.1126 4.81457 10.5603 4.81457 11.1126V20.5563C4.81457 21.1086 5.26228 21.5563 5.81457 21.5563H11.0199C11.5722 21.5563 12.0199 22.004 12.0199 22.5563V24.3709C12.0199 24.9231 11.5722 25.3709 11.0199 25.3709H9.2649M2.69536 25.3709L1.63576 33M2.69536 25.3709H9.2649M9.2649 25.3709L10.7483 33M24.0993 24.947H22.7682C22.2159 24.947 21.7682 24.4993 21.7682 23.947V22.5563C21.7682 22.004 22.2159 21.5563 22.7682 21.5563H27.7616C28.3139 21.5563 28.7616 21.1086 28.7616 20.5563V11.1126C28.7616 10.5603 29.2093 10.1126 29.7616 10.1126H31.5762C32.1284 10.1126 32.5762 10.5603 32.5762 11.1126V23.947C32.5762 24.4993 32.1284 24.947 31.5762 24.947H30.457M24.0993 24.947L22.6159 33M24.0993 24.947H30.457M30.457 24.947L31.9404 33M10.7483 3.75497V2C10.7483 1.44772 11.1961 1 11.7483 1H21.8278C22.3801 1 22.8278 1.44772 22.8278 2V5.02649M10.7483 3.75497V8.47682C10.7483 9.0291 11.1961 9.47682 11.7483 9.47682H19.0132M10.7483 3.75497L16.2583 7.56954M19.0132 9.47682H21.8278C22.3801 9.47682 22.8278 9.02911 22.8278 8.47682V5.02649M19.0132 9.47682L16.2583 7.56954M16.2583 7.56954L22.8278 5.02649" stroke="#333333"></path><path d="M23.7349 15.4106H9.84082C9.28854 15.4106 8.84082 15.8584 8.84082 16.4106V17.8014C8.84082 18.3537 9.28854 18.8014 9.84082 18.8014H16.7878H23.7349C24.2871 18.8014 24.7349 18.3537 24.7349 17.8014V16.4106C24.7349 15.8584 24.2871 15.4106 23.7349 15.4106Z" fill="#E71C24" stroke="#333333"></path></svg>