<svg xmlns="http://www.w3.org/2000/svg" width="32" height="32" viewBox="0 0 32 32" fill="none"><path d="M31 20.8462C31 20.2939 30.5523 19.8462 30 19.8462H21.3846V24.0769H31V20.8462Z" fill="#8CC0E5"></path><path d="M10.6154 19.8462H2C1.44772 19.8462 1 20.2939 1 20.8462V24.0769H10.6154V19.8462Z" fill="#8CC0E5"></path><path d="M10.6154 19.8462H2C1.44772 19.8462 1 20.2939 1 20.8462V24.0769M10.6154 19.8462H21.3846M10.6154 19.8462V24.0769M10.6154 31.3846H2C1.44772 31.3846 1 30.9369 1 30.3846V24.0769M10.6154 31.3846H21.3846M10.6154 31.3846V24.0769M21.3846 19.8462H30C30.5523 19.8462 31 20.2939 31 20.8462V24.0769M21.3846 19.8462V24.0769M21.3846 31.3846H30C30.5523 31.3846 31 30.9369 31 30.3846V24.0769M21.3846 31.3846V24.0769M21.3846 24.0769H31M10.6154 24.0769H1" stroke="#333333"></path><path d="M7.69231 3.69232H2C1.44772 3.69232 1 4.14004 1 4.69232V7.30771C1 7.85999 1.44772 8.30771 2 8.30771H7.69231C8.24459 8.30771 8.69231 7.85999 8.69231 7.30771V4.69232C8.69231 4.14004 8.24459 3.69232 7.69231 3.69232Z" stroke="#333333"></path><path d="M18.0767 25.2308H13.9229C13.3706 25.2308 12.9229 25.6785 12.9229 26.2308V28.0769C12.9229 28.6292 13.3706 29.0769 13.9229 29.0769H18.0767C18.629 29.0769 19.0767 28.6292 19.0767 28.0769V26.2308C19.0767 25.6785 18.629 25.2308 18.0767 25.2308Z" fill="#8CC0E5" stroke="#333333"></path><path d="M13.6921 22.1538H13.3075C13.095 22.1538 12.9229 22.326 12.9229 22.5385C12.9229 22.7509 13.095 22.9231 13.3075 22.9231H13.6921C13.9045 22.9231 14.0767 22.7509 14.0767 22.5385C14.0767 22.326 13.9045 22.1538 13.6921 22.1538Z" fill="#FFC766" stroke="#FFC766" stroke-width="0.5"></path><path d="M15.9997 22.1539H15.6151C15.4027 22.1539 15.2305 22.3261 15.2305 22.5385C15.2305 22.7509 15.4027 22.9231 15.6151 22.9231H15.9997C16.2121 22.9231 16.3843 22.7509 16.3843 22.5385C16.3843 22.3261 16.2121 22.1539 15.9997 22.1539Z" fill="#FFC766" stroke="#FFC766" stroke-width="0.5"></path><path d="M18.3073 22.1539H17.9227C17.7103 22.1539 17.5381 22.3261 17.5381 22.5385C17.5381 22.7509 17.7103 22.9231 17.9227 22.9231H18.3073C18.5197 22.9231 18.6919 22.7509 18.6919 22.5385C18.6919 22.3261 18.5197 22.1539 18.3073 22.1539Z" fill="#FFC766" stroke="#FFC766" stroke-width="0.5"></path><path d="M14.4617 4.10272V1.5C14.4617 1.22386 14.6856 1 14.9617 1H17.0386C17.3148 1 17.5386 1.22386 17.5386 1.5V4.10272C17.5386 4.26088 17.5908 4.41492 17.6876 4.54246L21.1609 9.12088C21.4106 9.45015 21.1758 9.92308 20.7625 9.92308H11.2379C10.8246 9.92308 10.5897 9.45015 10.8395 9.12088L14.3128 4.54246C14.4096 4.41492 14.4617 4.26088 14.4617 4.10272Z" fill="#E71C24"></path><path d="M29.9999 3.69232H24.3076C23.7553 3.69232 23.3076 4.14004 23.3076 4.69232V7.30771C23.3076 7.85999 23.7553 8.30771 24.3076 8.30771H29.9999C30.5522 8.30771 30.9999 7.85999 30.9999 7.30771V4.69232C30.9999 4.14004 30.5522 3.69232 29.9999 3.69232Z" stroke="#333333"></path></svg>