<svg xmlns="http://www.w3.org/2000/svg" width="34" height="32" viewBox="0 0 34 32" fill="none"><path d="M5.94531 22.3272V20.709C5.94531 20.1567 6.39303 19.709 6.94531 19.709H9.30895C9.86123 19.709 10.3089 20.1567 10.3089 20.709V22.1817M12.7817 22.1817V20.709C12.7817 20.1567 13.2294 19.709 13.7817 19.709H16.1453C16.6976 19.709 17.1453 20.1567 17.1453 20.709V22.3272" stroke="#E71C24" stroke-linecap="round"></path><path d="M2.89091 25.1812C2.48925 25.1812 2.16364 25.5068 2.16364 25.9085V28.854C2.16364 29.4063 2.61135 29.854 3.16364 29.854H19.9273C20.4796 29.854 20.9273 29.4063 20.9273 28.854V25.9085C20.9273 25.5068 20.6017 25.1812 20.2 25.1812H2.89091Z" fill="#8CC0E5"></path><path d="M25.5636 23.721C25.0114 23.721 24.5636 24.1687 24.5636 24.721V25.9113H30.6727V24.721C30.6727 24.1687 30.225 23.721 29.6727 23.721H27.6182H25.5636Z" fill="#8CC0E5"></path><path d="M1 15.5802V11.0715C1 10.7011 1.20477 10.361 1.53217 10.1877L16.5322 2.24764C16.8248 2.09273 17.1752 2.09273 17.4678 2.24764L32.4678 10.1877C32.7952 10.361 33 10.7011 33 11.0715V15.5802M2.89091 25.1812V25.1812C2.48925 25.1812 2.16364 25.5068 2.16364 25.9085V28.854C2.16364 29.4063 2.61135 29.854 3.16364 29.854H19.9273C20.4796 29.854 20.9273 29.4063 20.9273 28.854V25.9085C20.9273 25.5068 20.6017 25.1812 20.2 25.1812V25.1812M2.89091 25.1812V23.4068C2.89091 22.8545 3.33862 22.4068 3.89091 22.4068H4.05455M2.89091 25.1812H20.2M20.2 25.1812V22.5522C20.2 22.4719 20.1349 22.4068 20.0545 22.4068V22.4068H19.0364H17.1455H5.94546H4.05455M4.05455 22.4068V18.1499C4.05455 17.5976 4.50226 17.1499 5.05455 17.1499H18.0364C18.5886 17.1499 19.0364 17.5977 19.0364 18.1499V22.2608M24.5636 25.9113V24.721C24.5636 24.1687 25.0114 23.721 25.5636 23.721H27.6182M24.5636 25.9113V29C24.5636 29.5523 25.0114 30 25.5636 30H29.6727C30.225 30 30.6727 29.5523 30.6727 29V25.9113M24.5636 25.9113H30.6727M30.6727 25.9113V24.721C30.6727 24.1687 30.225 23.721 29.6727 23.721H27.6182M27.6182 23.721V20.2164" stroke="#333333" stroke-linecap="round"></path><path d="M28.7435 20.1455H26.3479C26.029 20.1455 25.7916 19.8509 25.8593 19.5393L26.2836 17.5876C26.3835 17.1279 26.7904 16.8 27.2608 16.8H27.8307C28.3011 16.8 28.7079 17.1279 28.8078 17.5876L29.2321 19.5393C29.2999 19.8509 29.0625 20.1455 28.7435 20.1455Z" fill="#E71C24"></path><path d="M28.9272 27.5637V28.7274" stroke="#FFC766" stroke-linecap="round"></path></svg>