<svg xmlns="http://www.w3.org/2000/svg" width="34" height="32" viewBox="0 0 34 32" fill="none"><path d="M2.44144 21.7478H1.86486C1.38721 21.7478 1 22.135 1 22.6127V30.6667C1 30.826 1.12907 30.955 1.28829 30.955H4.45946C4.61868 30.955 4.74775 30.826 4.74775 30.6667V30.2343V24.0541V22.6127C4.74775 22.135 4.36053 21.7478 3.88288 21.7478H2.44144Z" fill="#8CC0E5"></path><path d="M30.1171 21.7478H32.1351C32.6128 21.7478 33 22.135 33 22.6127V30.6667C33 30.826 32.8709 30.955 32.7117 30.955H29.5405C29.3813 30.955 29.2523 30.826 29.2523 30.6667V30.2343V24.0541V22.6127C29.2523 22.135 29.6395 21.7478 30.1171 21.7478Z" fill="#8CC0E5"></path><path d="M4.74775 24.0541V30.2343H29.1081H29.2523V24.0541H29.1081H4.74775Z" fill="#8CC0E5"></path><path d="M4.74775 30.6667V22.6127M4.74775 30.6667C4.74775 30.826 4.61868 30.955 4.45946 30.955H1.28829C1.12907 30.955 1 30.826 1 30.6667V22.6127C1 22.135 1.38721 21.7478 1.86486 21.7478M4.74775 30.6667V30.2343M3.88288 21.7478H1.86486M3.88288 21.7478C4.36053 21.7478 4.74775 22.135 4.74775 22.6127M3.88288 21.7478H2.44144M4.74775 22.6127V24.0541M1.86486 21.7478H2.44144M2.44144 21.7478V16.9911C2.44144 16.5134 2.82865 16.1262 3.30631 16.1262H8.20721M31.1261 21.6037V16.9911C31.1261 16.5134 30.7389 16.1262 30.2613 16.1262H8.20721M4.74775 24.0541H29.1081H29.2523M4.74775 24.0541V30.2343M4.74775 30.2343H29.1081H29.2523M8.20721 16.1262V7.6217M29.2523 24.0541V22.6127C29.2523 22.135 29.6395 21.7478 30.1171 21.7478H32.1351C32.6128 21.7478 33 22.135 33 22.6127V30.6667C33 30.826 32.8709 30.955 32.7117 30.955H29.5405C29.3813 30.955 29.2523 30.826 29.2523 30.6667V30.2343M29.2523 24.0541V30.2343" stroke="#333333"></path><path d="M8.20733 7.62174H6.41163C5.85544 7.62174 5.44385 7.10435 5.56891 6.56241L6.46704 2.67051C6.5576 2.2781 6.90703 2.00012 7.30975 2.00012H9.28239C9.66962 2.00012 10.0097 2.25752 10.1148 2.63021L11.2125 6.5221C11.3681 7.07395 10.9535 7.62174 10.3801 7.62174H8.20733Z" fill="#FFC766" stroke="#333333"></path><path d="M23.6459 8.41727L16.8559 12.8108H29.3964L24.7001 8.50585C24.4099 8.23976 23.9765 8.20335 23.6459 8.41727Z" fill="#E71C24"></path><path d="M19.1622 5.3153C19.4126 5.2527 19.9484 5.27165 20.2915 5.29248C20.4935 5.30473 20.685 5.39261 20.7946 5.56267C20.8443 5.63972 20.8926 5.72344 20.9378 5.80761C21.1016 6.11276 21.0238 6.48708 20.7495 6.69853C20.5715 6.83571 20.3625 6.97456 20.1712 7.04503C19.8499 7.1634 19.6161 7.33514 19.3063 7.18917C19.0517 7.06919 18.9699 6.87718 18.8739 6.61259C18.6969 6.12473 18.7778 5.41139 19.1622 5.3153Z" fill="#E71C24"></path><path d="M16.8559 12.8108H16.4235C15.9458 12.8108 15.5586 12.4236 15.5586 11.9459V3.58557C15.5586 3.10792 15.9458 2.7207 16.4235 2.7207H29.973C30.4507 2.7207 30.8379 3.10792 30.8379 3.58557V11.9459C30.8379 12.4236 30.4507 12.8108 29.973 12.8108H29.3964M16.8559 12.8108L23.6459 8.41727C23.9765 8.20335 24.4099 8.23976 24.7001 8.50585L29.3964 12.8108M16.8559 12.8108H29.3964M19.1622 5.3153C19.4126 5.2527 19.9484 5.27165 20.2915 5.29248C20.4935 5.30473 20.685 5.39261 20.7946 5.56267C20.8443 5.63972 20.8926 5.72344 20.9378 5.80761C21.1016 6.11276 21.0238 6.48708 20.7495 6.69853C20.5715 6.83571 20.3625 6.97456 20.1712 7.04503C19.8499 7.1634 19.6161 7.33514 19.3063 7.18917C19.0517 7.06919 18.9699 6.87718 18.8739 6.61259C18.6969 6.12473 18.7778 5.41139 19.1622 5.3153Z" stroke="#333333" stroke-width="0.9"></path></svg>