<svg width="48" height="48" viewBox="0 0 48 48" fill="none" xmlns="http://www.w3.org/2000/svg"><path d="M31.4438 40.4332L31.513 40.2198L30.8672 40.266V40.2198C30.0773 40.1506 29.3335 39.8277 28.7396 39.2915L26.6465 37.4003C25.92 36.743 24.9744 36.3797 23.9942 36.3797C23.014 36.3797 22.0742 36.743 21.3477 37.4003L19.2547 39.2915C18.6608 39.8277 17.917 40.1506 17.1271 40.2198V40.266L16.487 40.2198L16.5505 40.4101L15.1839 39.8912V39.8623C14.5266 39.5452 14.0135 39.0897 13.6502 38.5016C12.3529 36.4201 10.0523 32.6953 6.61006 27.1197C5.5722 25.4361 5.88356 23.2508 7.35386 21.9304L21.9704 8.7784C22.5239 8.27676 23.2447 8 24 8C24.7553 8 25.4703 8.27676 26.0296 8.7784L40.6461 21.9304C42.1164 23.2566 42.4278 25.4361 41.3899 27.1197C38.0803 32.4762 35.6471 36.4143 34.3498 38.5016C33.9808 39.0955 33.4618 39.551 32.8103 39.8681V39.8854L31.4553 40.4274L31.4438 40.4332ZM23.9942 20.3275L17.3346 26.324C17.2597 26.3932 17.1962 26.497 17.1616 26.6181C17.1328 26.7046 17.1213 26.7853 17.1213 26.8775V39.0839C17.6287 39.0205 18.1073 38.8014 18.4993 38.4497L20.5924 36.5585C21.5264 35.7167 22.7373 35.2496 23.9942 35.2496C25.257 35.2496 26.462 35.7167 27.3961 36.5585L29.4891 38.4497C29.8754 38.7956 30.354 39.0148 30.8614 39.0839V26.8775C30.8614 26.7449 30.8326 26.6181 30.7749 26.5085C30.7403 26.4336 30.6884 26.3701 30.6365 26.3183L23.9885 20.3275H23.9942ZM10.6174 21.9535C10.6404 22.1956 10.6923 22.4147 10.773 22.6223L15.9969 38.7207V26.8775C15.9969 26.6296 16.0431 26.3874 16.1353 26.1568C16.2333 25.9031 16.3833 25.684 16.5735 25.4995L23.1582 19.5664L18.8857 15.7032C18.7127 15.5476 18.5166 15.4149 18.3091 15.3169C18.2572 15.2939 18.2053 15.2708 18.1591 15.2477C18.1015 15.2247 18.0496 15.2074 18.0035 15.1901C17.94 15.1728 17.8939 15.1555 17.8478 15.1439C17.7786 15.1266 17.7325 15.1151 17.6863 15.1093C17.6114 15.0978 17.571 15.0921 17.5249 15.0863H17.4845C17.4384 15.0805 17.3981 15.0748 17.3577 15.0748H17.3173C17.2597 15.0748 17.2251 15.0748 17.1962 15.0748L16.5447 15.2016L16.4524 15.2362L11.4361 19.7567C11.3439 19.8431 11.2631 19.9412 11.1882 20.0392L11.021 20.2756C10.9921 20.3217 10.9633 20.3736 10.9345 20.4255C10.8999 20.4889 10.8711 20.5466 10.8422 20.6042V20.6215C10.8076 20.6792 10.7846 20.7369 10.7673 20.7945L10.7442 20.8579C10.7327 20.8925 10.7211 20.9329 10.7096 20.9733L10.6865 21.054C10.675 21.0943 10.6635 21.1462 10.6577 21.1924L10.6462 21.2385C10.6174 21.3884 10.6058 21.5614 10.6116 21.7344V21.8785L10.3464 21.9304C10.3464 21.9304 10.3464 21.9419 10.3464 21.9477L10.6174 21.9419V21.9535ZM24.8303 19.5722L31.4034 25.4937C31.5649 25.6494 31.6917 25.8224 31.7897 26.0242C31.9166 26.2894 31.9858 26.5892 31.9858 26.8833V38.7265L37.1981 22.6569C37.227 22.5819 37.2443 22.5243 37.2616 22.4666C37.2846 22.3859 37.2962 22.3398 37.3077 22.2937L37.3192 22.2245C37.3307 22.1783 37.3365 22.1495 37.3423 22.1207L37.3769 21.769C37.3769 21.5845 37.3653 21.4115 37.3365 21.2443C37.325 21.1924 37.3192 21.1462 37.3077 21.0944C37.2097 20.7023 37.0425 20.3563 36.8118 20.0622C36.7657 20.0046 36.7253 19.9527 36.685 19.9066C36.6561 19.8777 36.6273 19.8432 36.5985 19.8143L36.5235 19.7394L31.5303 15.2535L31.0459 15.1209L30.7807 15.092C30.7807 15.092 30.7173 15.092 30.6827 15.092H30.6135C30.6135 15.092 30.5501 15.092 30.5097 15.0978H30.4578C30.4232 15.1036 30.3828 15.1094 30.3425 15.1151H30.2964C30.2964 15.1151 30.2272 15.1382 30.181 15.1439L30.1349 15.1555C30.1003 15.167 30.0542 15.1785 30.0081 15.1901C29.9389 15.2131 29.887 15.2304 29.8351 15.2535C29.5699 15.363 29.3219 15.513 29.1086 15.709L24.8361 19.5722H24.8303ZM38.4955 21.5268C38.4955 21.5614 38.4955 21.596 38.4955 21.6306V21.6709C38.4955 21.7113 38.4955 21.7517 38.4955 21.7863C38.4955 21.89 38.4897 21.965 38.4782 22.0342L38.4609 22.1899C38.4609 22.2245 38.4551 22.2533 38.4493 22.2879C38.4378 22.3686 38.4205 22.4493 38.4032 22.5301C38.3628 22.703 38.3167 22.8645 38.2591 23.0202L38.2014 23.1931L33.4791 37.7463C34.8053 35.6186 37.1924 31.7555 40.4155 26.5374C41.1651 25.315 40.9402 23.7351 39.8735 22.7722L38.4897 21.5268H38.4955ZM9.47571 21.5268L8.09766 22.7722C7.03097 23.7351 6.8061 25.315 7.55567 26.5374C10.8999 31.9631 13.1716 35.6302 14.4863 37.7405L9.70058 22.9971C9.70058 22.9971 9.67752 22.9221 9.66022 22.876L9.63139 22.7895C9.61409 22.7434 9.60833 22.7088 9.59679 22.6684L9.5622 22.5416C9.55066 22.4897 9.53913 22.4436 9.53337 22.3974L9.51607 22.2994C9.50454 22.236 9.49877 22.1841 9.49301 22.1322L9.48147 22.0515C9.47571 21.9938 9.47571 21.9477 9.46994 21.9016V21.7978C9.46418 21.7632 9.46418 21.7344 9.46994 21.7055V21.6479C9.46994 21.6075 9.46994 21.5729 9.46994 21.5326V21.521L9.47571 21.5268ZM17.8305 14.0023C17.8305 14.0023 17.8709 14.0081 17.8939 14.0138L17.9689 14.0311C18.0381 14.0427 18.1073 14.06 18.1764 14.083L18.2514 14.1061C18.3321 14.1292 18.4071 14.1522 18.4763 14.181L18.5166 14.1983C18.6204 14.2387 18.7127 14.2791 18.7992 14.3252L18.8511 14.354C18.9202 14.3886 18.9894 14.429 19.0529 14.4693L19.1278 14.5155C19.1912 14.5558 19.2547 14.5962 19.3123 14.6423L19.37 14.6884C19.4565 14.7519 19.5372 14.8153 19.6122 14.8845L23.9712 18.8283L28.3648 14.8556C28.4109 14.8153 28.457 14.7749 28.5089 14.7346L28.5839 14.6769C28.6185 14.6481 28.6588 14.6192 28.6934 14.5962L29.172 14.3194C29.247 14.2848 29.3104 14.256 29.3796 14.2272L29.6852 14.1234C29.7313 14.1119 29.7717 14.1003 29.812 14.0888L29.8985 14.0657C29.9504 14.0542 29.9908 14.0484 30.0311 14.0369L30.1118 14.0196C30.1118 14.0196 30.1176 14.0196 30.1234 14.0196L25.2454 9.63752C24.542 9.00903 23.3946 9.00903 22.6911 9.63752L17.8132 14.0196L17.8305 14.0023Z" fill="#A47A14"></path></svg>