<svg width="12" height="12" viewBox="0 0 12 12" fill="none" xmlns="http://www.w3.org/2000/svg"><path d="M6 0.75C3.525 0.75 1.5 2.7375 1.5 5.2125V6.525C1.5 6.5625 1.5 6.5625 1.5 6.6C1.5 6.6375 1.5 6.7125 1.5 6.75C1.5 7.8 2.325 8.625 3.375 8.625C3.6 8.625 3.75 8.475 3.75 8.25V5.25C3.75 5.025 3.6 4.875 3.375 4.875C2.9625 4.875 2.55 5.025 2.25 5.25V5.175C2.25 3.15 3.9375 1.5 6 1.5C8.0625 1.5 9.75 3.15 9.75 5.2125V5.25C9.45 5.025 9.0375 4.875 8.625 4.875C8.4 4.875 8.25 5.025 8.25 5.25V8.25C8.25 8.475 8.4 8.625 8.625 8.625C8.8875 8.625 9.15 8.55 9.375 8.475C9 9.2625 8.325 9.8625 7.5 10.2C7.5 10.1625 7.5 10.1625 7.5 10.125C7.5 9.9 7.35 9.75 7.125 9.75H6C5.775 9.75 5.625 9.9 5.625 10.125V10.875C5.625 11.1 5.775 11.25 6 11.25C8.475 11.25 10.5 9.3 10.5 6.9V6.525V5.625V5.2125C10.5 2.7375 8.475 0.75 6 0.75Z" fill="#E71C24"></path></svg>