<svg width="17" height="16" viewBox="0 0 17 16" fill="none" xmlns="http://www.w3.org/2000/svg"><path d="M13.4776 10.422L15.4269 12.3713C15.7434 12.6878 15.7434 13.201 15.4269 13.5176C13.7156 15.2289 11.0063 15.4214 9.07021 13.9693L8.08557 13.2308C6.26001 11.8617 4.63832 10.24 3.26916 8.41443L2.53067 7.42979C1.07858 5.49367 1.27112 2.78443 2.98243 1.07313C3.29896 0.756598 3.81215 0.756597 4.12868 1.07313L6.07798 3.02242C6.64856 3.593 6.64856 4.51811 6.07798 5.08869L5.57488 5.59178C5.43063 5.73603 5.39487 5.95641 5.4861 6.13887C6.54091 8.24849 8.25151 9.95909 10.3611 11.0139C10.5436 11.1051 10.764 11.0694 10.9082 10.9251L11.4113 10.422C11.9819 9.85144 12.907 9.85144 13.4776 10.422Z" stroke="#DF1B1B" stroke-width="1.2"></path></svg>