<svg id="Layer_1" data-name="Layer 1" xmlns="http://www.w3.org/2000/svg" version="1.1" viewBox="0 0 24 24"><circle cx="12" cy="12" r="9" style="fill: rgb(231, 27, 36); stroke-width: 0px;"></circle><path d="M12.18,6.16c-4.27,0-5.82,2.98-6.12,4.73-.33,1.95.59,4.18,2.1,4.23l.31-1.2c-.64-.75-.98-1.67-.69-3.04.23-1.14,1.62-3.35,4.46-3.28,3.31.09,3.81,2.86,3.56,4.5-.65,4.28-3.09,3.72-3.17,3.7-.94-.18-1.14-.86-1.1-1.53.03-.7.62-1.45.8-2.68.12-.79.02-1.84-1.02-1.96-1.12-.12-1.64,1.03-1.73,1.47-.2,1-.09,1.42.18,2.23,0,0-.85,3.65-1.18,4.89-.11.43-.15,1.5-.16,2.05-.06-.03,1.48.54,1.08.42.2-.43.81-1.68.95-2.2.14-.51.55-2.2.55-2.2.59.65,1.31,1.07,2.17,1.04,3.3-.1,4.63-2.79,4.84-5.39.17-2.19-1.17-5.79-5.82-5.79Z" style="fill: rgb(245, 245, 245); stroke-width: 0px;"></path></svg>