<svg class="mright5" fill="#474a50" width="16" height="16" viewBox="0 0 256 256" xmlns="http://www.w3.org/2000/svg"><path id="Phone" d="M235.5-88A152.36,152.36,0,0,1,190-95q-12.5-4-20.5,4l-29,22A171.936,171.936,0,0,1,69-140.5L90.5-169q9-8.5,5-20.5a144.552,144.552,0,0,1-7.5-46A19.755,19.755,0,0,0,82-250a19.755,19.755,0,0,0-14.5-6h-47A19.755,19.755,0,0,0,6-250a19.755,19.755,0,0,0-6,14.5Q0-138,69-69T235.5,0A19.755,19.755,0,0,0,250-6a19.755,19.755,0,0,0,6-14.5v-47A19.755,19.755,0,0,0,250-82,19.755,19.755,0,0,0,235.5-88ZM242-20.5q0,6.5-6.5,6.5Q144-14,79-79T14-235.5q0-6.5,6.5-6.5h47q6.5,0,6.5,6.5a154.106,154.106,0,0,0,8,50q1,4-2.5,7.5L55-145.5q-2.5,3-.5,7.5,15,29.5,34.5,49t49,34.5q4.5,2,7.5-.5L179-80.5q2.5-2.5,6.5-1.5a151.535,151.535,0,0,0,50,8.5q6.5,0,6.5,6Z" transform="translate(0 256)"></path></svg>