<svg xmlns="http://www.w3.org/2000/svg" xmlns:xlink="http://www.w3.org/1999/xlink" width="72px" height="72px" viewBox="0 0 72 72" version="1.1"><g id="Page-1" stroke="none" stroke-width="1" fill="none" fill-rule="evenodd"><g id="D1" transform="translate(-803.000000, -5156.000000)"><g id="Group-70" transform="translate(0.000000, 5031.000000)"><g id="Group-76"><g id="Group-17"><g id="Group-72-Copy-2" transform="translate(695.000000, 125.000000)"><g id="Rectangle-4" transform="translate(108.000000, 0.000000)"><rect id="Rectangle" x="0" y="0" width="72" height="72"></rect><g id="RTB-03-copy-01" transform="translate(12.000000, 12.000000)"><path d="M21.552,28.477 C21.515,28.477 21.477,28.476 21.44,28.473 C21.051,28.453 20.693,28.29 20.427,28.009 L15.656,22.938 C15.304,22.564 15.322,21.975 15.696,21.623 C16.07,21.27 16.66,21.288 17.012,21.663 L21.535,26.47 L31.721,16.883 C32.096,16.531 32.685,16.549 33.037,16.923 C33.39,17.297 33.371,17.887 32.997,18.239 L22.561,28.06 C22.553,28.067 22.545,28.075 22.537,28.082 C22.253,28.34 21.909,28.477 21.552,28.477" id="Fill-1" fill="#D2262E"></path><path d="M8.498,41.447 C7.328,40.728 6.554,39.492 6.197,37.772 C5.963,36.643 5.655,36.032 5.203,35.665 C4.135,37.227 1.772,40.685 0.436,42.675 C-0.026,43.363 0.349,43.677 1.129,43.603 C2.561,43.468 3.993,43.322 5.535,43.17 C6.013,44.539 6.465,45.886 6.96,47.217 C7.057,47.474 7.298,47.83 7.513,47.858 C7.73,47.887 8.076,47.614 8.232,47.39 C9.437,45.65 11.833,42.164 11.833,42.164 L11.776,42.095 C10.508,42.22 9.408,42.008 8.498,41.447" id="Fill-2" fill="#5E5E5B"></path><path d="M42.733,35.572 C42.15,35.855 41.863,36.34 41.768,37.459 C41.616,39.215 40.953,40.534 39.797,41.38 C38.84,42.078 37.645,42.372 36.24,42.272 C36.641,42.853 38.684,45.824 39.768,47.389 C39.924,47.614 40.27,47.887 40.487,47.858 C40.701,47.83 40.944,47.474 41.039,47.217 C41.535,45.886 41.987,44.539 42.465,43.17 C44.007,43.322 45.438,43.468 46.871,43.603 C47.65,43.677 48.025,43.363 47.563,42.675 C46.198,40.642 43.766,37.081 42.733,35.572" id="Fill-3" fill="#5E5E5B"></path><path d="M23.956,40.516 C24.547,40.516 25.132,40.732 25.758,41.166 C26.911,41.965 27.883,42.26 28.785,42.067 C29.646,41.887 30.378,41.266 31.024,40.167 C31.804,38.84 32.819,38.396 34.418,38.685 C35.625,38.901 36.592,38.752 37.293,38.24 C37.979,37.738 38.378,36.901 38.477,35.753 C38.636,33.905 39.396,32.982 41.1,32.568 C42.162,32.311 42.962,31.748 43.353,30.983 C43.727,30.25 43.706,29.349 43.293,28.444 C42.52,26.75 42.805,25.564 44.279,24.353 C45.102,23.677 45.554,22.839 45.5500263,21.997 C45.547,21.248 45.173,20.536 44.497,19.989 C42.801,18.615 42.427,17.177 43.285,15.327 C43.36,15.162 43.379,14.985 43.396,14.813 L43.397,14.796 C43.405,14.725 43.413,14.65 43.426,14.572 L43.432,14.542 L43.427,14.507 C43.22,12.911 42.286,11.899 40.727,11.579 C39.127,11.25 38.383,10.354 38.314,8.672 C38.255,7.204 37.633,6.449 37.122,6.074 C36.602,5.692 35.662,5.307 34.144,5.641 C32.652,5.966 31.72,5.56 30.924,4.239 C30.459,3.464 29.711,2.406 28.581,2.153 C27.467,1.901 26.345,2.505 25.598,2.982 C24.255,3.839 23.139,3.819 21.862,2.914 C20.804,2.163 19.823,1.874 18.945,2.056 C18.087,2.232 17.339,2.858 16.721,3.916 C15.924,5.282 14.919,5.746 13.361,5.466 C11.782,5.181 10.844,5.583 10.335,5.97 C9.853,6.338 9.264,7.073 9.202,8.485 C9.129,10.158 8.427,11.001 6.778,11.396 C5.317,11.746 4.673,12.457 4.39,12.992 C4.115,13.515 3.902,14.412 4.457,15.71 C5.138,17.301 4.868,18.456 3.555,19.57 C2.942,20.09 2.213,20.939 2.22191749,22.028 C2.225,22.599 2.444,23.456 3.465,24.299 C4.904,25.487 5.177,26.68 4.409,28.415 C4.01,29.314 4.021,30.274 4.44,31.049 C4.822,31.752 5.498,32.235 6.345,32.409 C8.415,32.837 9.066,34.05 9.444,35.868 C9.685,37.026 10.145,37.802 10.852,38.236 C11.545,38.662 12.478,38.746 13.626,38.487 C15.077,38.159 16,38.583 16.814,39.948 C17.262,40.698 17.989,41.726 19.128,41.979 C20.262,42.234 21.349,41.659 22.168,41.13 C22.799,40.721 23.38,40.516 23.956,40.516 Z M28.253,43.985 C27.112,43.985 25.949,43.563 24.698,42.696 C24.085,42.272 23.83,42.271 23.179,42.693 C22.141,43.363 20.55,44.207 18.722,43.797 C16.882,43.386 15.839,41.948 15.215,40.902 C14.776,40.165 14.634,40.168 14.037,40.303 C12.398,40.674 10.998,40.512 9.877,39.822 C8.709,39.103 7.972,37.935 7.621,36.247 C7.29,34.657 6.885,34.422 5.969,34.233 C4.575,33.946 3.451,33.13 2.804,31.935 C2.107,30.649 2.072,29.092 2.707,27.66 C3.136,26.692 3.068,26.386 2.279,25.734 C0.704,24.434 0.366,23.008 0.359892523,22.041 C0.35,20.61 1.038,19.265 2.35,18.151 C3.045,17.561 3.108,17.289 2.746,16.442 C1.902,14.47 2.279,13.005 2.744,12.123 C3.207,11.247 4.206,10.097 6.345,9.585 C7.175,9.386 7.306,9.232 7.342,8.404 C7.435,6.271 8.408,5.098 9.207,4.489 C10.014,3.875 11.446,3.229 13.69,3.634 C14.491,3.777 14.704,3.679 15.113,2.978 C16.008,1.444 17.171,0.52 18.569,0.232 C19.973,-0.058 21.443,0.334 22.94,1.396 C23.595,1.861 23.89,1.864 24.595,1.413 C25.624,0.757 27.198,-0.068 28.991,0.337 C30.815,0.746 31.879,2.212 32.52,3.279 C32.906,3.922 33.032,3.977 33.745,3.822 C35.941,3.339 37.394,3.963 38.224,4.573 C39.064,5.19 40.085,6.389 40.175,8.596 C40.211,9.477 40.395,9.61 41.101,9.755 C43.442,10.236 44.963,11.88 45.272,14.266 L45.295,14.437 C45.308,14.528 45.306,14.621 45.29,14.711 L45.262,14.882 C45.256,14.917 45.254,14.948 45.251,14.977 L45.249,14.999 C45.223,15.248 45.181,15.658 44.976,16.107 C44.439,17.263 44.691,17.749 45.669,18.541 C46.787,19.447 47.406,20.671 47.4120269,21.989 C47.417,23.402 46.725,24.752 45.462,25.792 C44.637,26.469 44.566,26.75 44.987,27.671 C45.641,29.103 45.648,30.58 45.01,31.83 C44.369,33.086 43.136,33.991 41.539,34.378 C40.675,34.588 40.428,34.803 40.331,35.913 C40.185,37.621 39.531,38.91 38.391,39.744 C37.264,40.566 35.815,40.827 34.089,40.518 C33.202,40.358 32.993,40.492 32.629,41.111 C31.702,42.686 30.57,43.596 29.17,43.89 C28.871,43.953 28.561,43.985 28.253,43.985 L28.253,43.985 Z" id="Fill-4" fill="#5D5E5B"></path></g></g></g></g></g></g></g></g></svg>